<?xml version="1.0" encoding="UTF-8" standalone="no"?>
<svg
   xmlns:dc="http://purl.org/dc/elements/1.1/"
   xmlns:cc="http://creativecommons.org/ns#"
   xmlns:rdf="http://www.w3.org/1999/02/22-rdf-syntax-ns#"
   xmlns:svg="http://www.w3.org/2000/svg"
   xmlns="http://www.w3.org/2000/svg"
   xmlns:sodipodi="http://sodipodi.sourceforge.net/DTD/sodipodi-0.dtd"
   xmlns:inkscape="http://www.inkscape.org/namespaces/inkscape"
   width="253.87126"
   height="209.91078"
   viewBox="0 0 253.87126 209.91078"
   version="1.1"
   id="svg122"
   sodipodi:docname="L-8336_REV E_FINAL 05-11-21.svg"
   inkscape:version="1.0.1 (3bc2e813f5, 2020-09-07)">
  <metadata
     id="metadata128">
    <rdf:RDF>
      <cc:Work
         rdf:about="">
        <dc:format>image/svg+xml</dc:format>
        <dc:type
           rdf:resource="http://purl.org/dc/dcmitype/StillImage" />
        <dc:title>Produce by Acme CAD Converter</dc:title>
      </cc:Work>
    </rdf:RDF>
  </metadata>
  <defs
     id="defs126" />
  <sodipodi:namedview
     pagecolor="#ffffff"
     bordercolor="#666666"
     borderopacity="1"
     objecttolerance="10"
     gridtolerance="10"
     guidetolerance="10"
     inkscape:pageopacity="0"
     inkscape:pageshadow="2"
     inkscape:window-width="1861"
     inkscape:window-height="936"
     id="namedview124"
     showgrid="false"
     lock-margins="true"
     fit-margin-top="5"
     fit-margin-left="5"
     fit-margin-right="5"
     fit-margin-bottom="5"
     inkscape:zoom="1.8420132"
     inkscape:cx="218.95073"
     inkscape:cy="88.65808"
     inkscape:window-x="0"
     inkscape:window-y="0"
     inkscape:window-maximized="0"
     inkscape:current-layer="svg122" />
  <title
     id="title2">Produce by Acme CAD Converter</title>
  <desc
     id="desc4">Produce by Acme CAD Converter</desc>
  <polyline
     points="254.32,204.19 455.34,204.19"
     style="fill:none;stroke:#000000;stroke-width:0.5"
     id="polyline6"
     transform="translate(-213.03,-169.81922)" />
  <polyline
     points="239.62,270.35 455.34,270.35"
     style="fill:none;stroke:#000000;stroke-width:0.5"
     id="polyline8"
     transform="translate(-213.03,-169.81922)" />
  <polyline
     points="239.62,268.09 455.34,268.09"
     style="fill:none;stroke:#000000;stroke-width:0.5"
     id="polyline10"
     transform="translate(-213.03,-169.81922)" />
  <polyline
     points="239.62,234.16 455.34,234.16"
     style="fill:none;stroke:#000000;stroke-width:0.5"
     id="polyline12"
     transform="translate(-213.03,-169.81922)" />
  <polyline
     points="239.62,236.42 455.34,236.42"
     style="fill:none;stroke:#000000;stroke-width:0.5"
     id="polyline14"
     transform="translate(-213.03,-169.81922)" />
  <polyline
     points="239.62,270.35 239.62,181.38"
     style="fill:none;stroke:#000000;stroke-width:0.5"
     id="polyline16"
     transform="translate(-213.03,-169.81922)" />
  <polyline
     points="250.93,234.16 250.93,181.38"
     style="fill:none;stroke:#000000;stroke-width:0.5"
     id="polyline18"
     transform="translate(-213.03,-169.81922)" />
  <polyline
     points="248.66,234.16 248.66,181.38"
     style="fill:none;stroke:#000000;stroke-width:0.5"
     id="polyline20"
     transform="translate(-213.03,-169.81922)" />
  <polyline
     points="254.32,204.19 254.32,185.68"
     style="fill:none;stroke:#000000;stroke-width:0.5"
     id="polyline22"
     transform="translate(-213.03,-169.81922)" />
  <polyline
     points="267.89,181.38 267.89,204.19"
     style="fill:none;stroke:#000000;stroke-width:0.5"
     id="polyline24"
     transform="translate(-213.03,-169.81922)" />
  <polyline
     points="252.34,233.03 268.46,233.03"
     style="fill:none;stroke:#000000;stroke-width:0.5"
     id="polyline26"
     transform="translate(-213.03,-169.81922)" />
  <polyline
     points="250.93,234.16 269.02,234.16"
     style="fill:none;stroke:#000000;stroke-width:0.5"
     id="polyline28"
     transform="translate(-213.03,-169.81922)" />
  <polyline
     points="252.06,232.75 252.06,216.63"
     style="fill:none;stroke:#000000;stroke-width:0.5"
     id="polyline30"
     transform="translate(-213.03,-169.81922)" />
  <polyline
     points="250.93,234.16 250.93,216.07"
     style="fill:none;stroke:#000000;stroke-width:0.5"
     id="polyline32"
     transform="translate(-213.03,-169.81922)" />
  <polyline
     points="252.06,232.75 252.1,232.89 252.2,232.99 252.34,233.03"
     style="fill:none;stroke:#000000;stroke-width:0.5"
     id="polyline34"
     transform="translate(-213.03,-169.81922)" />
  <polyline
     points="252.06,216.63 251.98,216.35 251.78,216.14 251.49,216.07"
     style="fill:none;stroke:#000000;stroke-width:0.5"
     id="polyline36"
     transform="translate(-213.03,-169.81922)" />
  <polyline
     points="250.93,216.07 251.49,216.07"
     style="fill:none;stroke:#000000;stroke-width:0.5"
     id="polyline38"
     transform="translate(-213.03,-169.81922)" />
  <polyline
     points="269.02,233.6 268.86,233.2 268.46,233.03"
     style="fill:none;stroke:#000000;stroke-width:0.5"
     id="polyline40"
     transform="translate(-213.03,-169.81922)" />
  <polyline
     points="269.02,234.16 269.02,233.6"
     style="fill:none;stroke:#000000;stroke-width:0.5"
     id="polyline42"
     transform="translate(-213.03,-169.81922)" />
  <polyline
     points="268.43,231.9 268.23,230.28 267.65,228.75 266.72,227.4 265.5,226.31 264.05,225.55 262.46,225.16 260.83,225.16 259.24,225.55 257.79,226.31 256.56,227.4 255.64,228.75 255.06,230.28 254.86,231.9"
     style="fill:none;stroke:#000000;stroke-width:0.5"
     id="polyline44"
     transform="translate(-213.03,-169.81922)" />
  <polyline
     points="268.46,231.9 254.73,231.9"
     style="fill:none;stroke:#000000;stroke-width:0.5"
     id="polyline46"
     transform="translate(-213.03,-169.81922)" />
  <polyline
     points="268.46,233.03 254.73,233.03"
     style="fill:none;stroke:#000000;stroke-width:0.5"
     id="polyline48"
     transform="translate(-213.03,-169.81922)" />
  <polyline
     points="268.46,231.9 268.46,233.03"
     style="fill:none;stroke:#000000;stroke-width:0.5"
     id="polyline50"
     transform="translate(-213.03,-169.81922)" />
  <polyline
     points="254.73,231.9 254.73,233.03"
     style="fill:none;stroke:#000000;stroke-width:0.5"
     id="polyline52"
     transform="translate(-213.03,-169.81922)" />
  <polyline
     points="455.34,225.11 254.32,225.11"
     style="fill:none;stroke:#000000;stroke-width:0.5"
     id="polyline54"
     transform="translate(-213.03,-169.81922)" />
  <polyline
     points="254.32,204.19 254.32,225.11"
     style="fill:none;stroke:#000000;stroke-width:0.5"
     id="polyline56"
     transform="translate(-213.03,-169.81922)" />
  <polyline
     points="236.22,181.38 236.22,283.92"
     style="fill:none;stroke:#000000;stroke-width:0.5"
     id="polyline58"
     transform="translate(-213.03,-169.81922)" />
  <polyline
     points="455.34,297.5 239.62,297.5 239.62,270.35 455.34,270.35"
     style="fill:none;stroke:#000000;stroke-width:0.5"
     id="polyline60"
     transform="translate(-213.03,-169.81922)" />
  <polyline
     points="455.34,271.9 239.62,271.9"
     style="fill:none;stroke:#000000;stroke-width:0.5"
     id="polyline62"
     transform="translate(-213.03,-169.81922)" />
  <polyline
     points="455.34,295.94 239.62,295.94"
     style="fill:none;stroke:#000000;stroke-width:0.5"
     id="polyline64"
     transform="translate(-213.03,-169.81922)" />
  <polyline
     points="239.62,266.73 238.22,270.64 237.18,274.66 236.52,278.76 236.24,282.9 236.33,287.04 236.81,291.17 237.66,295.23 238.88,299.19 240.46,303.03 242.38,306.71 244.63,310.19 247.2,313.46 250.05,316.47 253.16,319.22 256.51,321.66 260.08,323.79 263.82,325.58 267.71,327.02 271.72,328.1 275.81,328.81 279.94,329.14 284.09,329.09 288.22,328.65 292.29,327.85 296.27,326.67 300.12,325.13 303.82,323.25 307.33,321.04 310.62,318.51 313.67,315.69 316.44,312.61 318.93,309.28 321.09,305.74 322.92,302.02"
     style="fill:none;stroke:#000000;stroke-width:0.5"
     id="polyline66"
     transform="translate(-213.03,-169.81922)" />
  <polyline
     points="455.34,329.16 281.46,329.16"
     style="fill:none;stroke:#000000;stroke-width:0.5"
     id="polyline68"
     transform="translate(-213.03,-169.81922)" />
  <polyline
     points="442.06,297.5 442.06,302.02 455.34,302.02"
     style="fill:none;stroke:#000000;stroke-width:0.5"
     id="polyline70"
     transform="translate(-213.03,-169.81922)" />
  <polyline
     points="310.87,297.5 310.87,302.02 333.49,302.02 356.11,302.02 356.11,297.5"
     style="fill:none;stroke:#000000;stroke-width:0.5"
     id="polyline72"
     transform="translate(-213.03,-169.81922)" />
  <polyline
     points="322.92,302.02 324.43,298.09 325.56,294.04 326.31,289.9 326.67,285.7 326.64,281.5 326.22,277.31 325.41,273.18 324.22,269.14 322.66,265.24 320.75,261.49 318.49,257.94 315.92,254.61 313.05,251.53 309.9,248.74 306.51,246.25 302.9,244.09 299.11,242.27 295.16,240.81 291.09,239.72 286.95,239.02 282.75,238.7 278.54,238.78 274.36,239.25 270.24,240.1 266.22,241.33 262.33,242.93 258.6,244.89 255.07,247.18 251.78,249.79 248.73,252.7 245.97,255.87 243.52,259.29 241.4,262.92 239.62,266.73"
     style="fill:none;stroke:#000000;stroke-width:0.5"
     id="polyline74"
     transform="translate(-213.03,-169.81922)" />
  <polyline
     points="281.46,229.64 281.46,338.21"
     style="fill:none;stroke:#000000;stroke-width:0.5"
     id="polyline76"
     transform="translate(-213.03,-169.81922)" />
  <polyline
     points="335.75,283.92 227.18,283.92"
     style="fill:none;stroke:#000000;stroke-width:0.5"
     id="polyline78"
     transform="translate(-213.03,-169.81922)" />
  <polyline
     points="399.08,229.64 399.08,338.21"
     style="fill:none;stroke:#000000;stroke-width:0.5"
     id="polyline80"
     transform="translate(-213.03,-169.81922)" />
  <polyline
     points="416.22,337.61 415.72,336.6 414.71,335.59 413.7,335.09 411.68,335.09 410.67,335.59 409.66,336.6 409.15,337.61 408.65,339.13 408.65,341.65 409.15,343.17 409.66,344.18 410.67,345.19 411.68,345.69 413.7,345.69 414.71,345.19 415.72,344.18 416.22,343.17"
     style="fill:none;stroke:#000000;stroke-width:0.5"
     id="polyline82"
     transform="translate(-213.03,-169.81922)" />
  <polyline
     points="419.25,345.69 423.29,335.09 427.33,345.69"
     style="fill:none;stroke:#000000;stroke-width:0.5"
     id="polyline84"
     transform="translate(-213.03,-169.81922)" />
  <polyline
     points="420.77,342.16 425.81,342.16"
     style="fill:none;stroke:#000000;stroke-width:0.5"
     id="polyline86"
     transform="translate(-213.03,-169.81922)" />
  <polyline
     points="430.36,345.69 430.36,335.09 434.9,335.09 436.42,335.59 436.92,336.1 437.43,337.11 437.43,338.12 436.92,339.13 436.42,339.63 434.9,340.14 430.36,340.14"
     style="fill:none;stroke:#000000;stroke-width:0.5"
     id="polyline88"
     transform="translate(-213.03,-169.81922)" />
  <polyline
     points="433.89,340.14 437.43,345.69"
     style="fill:none;stroke:#000000;stroke-width:0.5"
     id="polyline90"
     transform="translate(-213.03,-169.81922)" />
  <polyline
     points="400.48,335.68 400.05,334.82 399.19,333.96 398.33,333.53 396.61,333.53 395.74,333.96 394.88,334.82 394.45,335.68 394.02,336.98 394.02,339.13 394.45,340.42 394.88,341.29 395.74,342.15 396.61,342.58 398.33,342.58 399.19,342.15 400.05,341.29 400.48,340.42"
     style="fill:none;stroke:#000000;stroke-width:0.5"
     id="polyline92"
     transform="translate(-213.03,-169.81922)" />
  <polyline
     points="397.41,338.16 397.41,347.21 402.58,347.21"
     style="fill:none;stroke:#000000;stroke-width:0.5"
     id="polyline94"
     transform="translate(-213.03,-169.81922)" />
  <polyline
     points="281.46,340.33 281.46,374.73"
     style="fill:none;stroke:#000000;stroke-width:0.5"
     id="polyline96"
     transform="translate(-213.03,-169.81922)" />
  <polyline
     points="399.08,340.33 399.08,374.73"
     style="fill:none;stroke:#000000;stroke-width:0.5"
     id="polyline98"
     transform="translate(-213.03,-169.81922)" />
  <polyline
     points="294.19,366.24 331.17,366.24"
     style="fill:none;stroke:#000000;stroke-width:0.5"
     id="polyline100"
     transform="translate(-213.03,-169.81922)" />
  <polyline
     points="386.36,366.24 349.37,366.24"
     style="fill:none;stroke:#000000;stroke-width:0.5"
     id="polyline102"
     transform="translate(-213.03,-169.81922)" />
  <path
     d="m 81.16,194.30078 -12.73,2.12 v 0 l 12.73,2.12 z"
     fill-rule="evenodd"
     fill="#000000"
     id="path104" />
  <path
     d="m 173.33,194.30078 12.72,2.12 v 0 l -12.72,2.12 z"
     fill-rule="evenodd"
     fill="#000000"
     id="path106" />
  <polyline
     points="336.74,371.54 343.81,360.94"
     style="fill:none;stroke:#000000;stroke-width:0.5"
     id="polyline108"
     transform="translate(-213.03,-169.81922)" />
  <polyline
     points="336.74,360.94 343.81,371.54"
     style="fill:none;stroke:#000000;stroke-width:0.5"
     id="polyline110"
     transform="translate(-213.03,-169.81922)" />
  <polyline
     points="281.46,338.21 281.46,338.21"
     style="fill:none;stroke:#000000;stroke-width:0.5"
     id="polyline112"
     transform="translate(-213.03,-169.81922)" />
  <polyline
     points="399.08,338.21 399.08,338.21"
     style="fill:none;stroke:#000000;stroke-width:0.5"
     id="polyline114"
     transform="translate(-213.03,-169.81922)" />
  <polyline
     points="399.08,366.24 399.08,366.24"
     style="fill:none;stroke:#000000;stroke-width:0.5"
     id="polyline116"
     transform="translate(-213.03,-169.81922)" />
  <polyline
     points="455.34,360.51 455.34,282.35 461.17,280.23 449.52,275.99 455.34,273.87 455.34,195.71"
     style="fill:none;stroke:#000000;stroke-width:0.5"
     id="polyline118"
     transform="translate(-213.03,-169.81922)" />
  <polyline
     points="218.03,181.38 251.64,181.38 253.76,187.21 258.01,175.55 260.13,181.38 293.74,181.38"
     style="fill:none;stroke:#000000;stroke-width:0.5"
     id="polyline120"
     transform="translate(-213.03,-169.81922)" />
</svg>
