<svg xmlns="http://www.w3.org/2000/svg" xmlns:xlink="http://www.w3.org/1999/xlink" width="530.67" height="344.109" xmlns:v="https://vecta.io/nano"><style><![CDATA[.B{stroke-width:.5}.C{stroke:#000}.D{fill-rule:evenodd}]]></style><g fill="none" class="C"><g class="B"><path d="M237.84 98.009h0 0 0 .01 0 .01.02 0 .02.02.05m0 .8h-.03-.01-.01-.02-.02 0-.02-.01 0-.01 0m1.09-.8h.03.01.01.02.01.01.02.01 0 .01 0m0 .8h0 0 0-.01 0-.01-.02-.01-.01-.02-.05m-.96 3.81l-.09-.04-.04-.09m0-8.16l.04-.09.09-.04m.96 0l.09.04.04.09m0 8.16l-.04.09-.09.04m-.96-4.61h.96m-.96.8h.96m-.96-4.61h.96m-.96 8.42h.96m-1.09 32.71h0 0 0 .01 0 .01.02 0 .02.02.05m0 .8h-.03-.01-.01-.02-.02 0-.02-.01 0-.01 0m1.09-.8h.03.01.01.02.01.01.02.01 0 .01 0m0 .8h0 0 0-.01 0-.01-.02-.01-.01-.02-.05m-.96 3.81l-.09-.04-.04-.09m0-8.16l.04-.09.09-.04"/><path d="M238.93 131.519l.09.04.04.09m0 8.16l-.04.09-.09.04m-.96-4.61h.96m-.96.8h.96m-.96-4.61h.96m-.96 8.42h.96m53.9-41.13h0 0 0-.01 0-.01-.02-.01-.01-.02-.05m0-.8h.03.01.01.02.01.01.02.01 0 .01 0m-1.09.8h-.03-.01-.01-.02-.01-.01-.02-.01 0-.01 0m0-.8h0 0 0 .01 0 .01.02.01.01.02.05m.96-3.81l.09.04.04.09m0 8.16l-.04.09-.09.04"/><path d="M291.74 102.619l-.09-.04-.04-.09m0-8.16l.04-.09.09-.04m.96 4.61h-.96m.96-.8h-.96m.96 4.61h-.96m.96-8.42h-.96m1.09 41.93h0 0 0-.01 0-.01-.02-.01-.01-.02-.05m0-.8h.03.01.01.02.01.01.02.01 0 .01 0m-1.09.8h-.03-.01-.01-.02-.01-.01-.02-.01 0-.01 0m0-.8h0 0 0 .01 0 .01.02.01.01.02.05m.96-3.81l.09.04.04.09m0 8.16l-.04.09-.09.04"/><path d="M291.74 139.939l-.09-.04-.04-.09m0-8.16l.04-.09.09-.04m.96 4.61h-.96m.96-.8h-.96m.96 4.61h-.96m.96-8.42h-.96m-48.26-28.93l.02-.07.02-.07.02-.07.02-.07.02-.06.02-.07.02-.07.02-.06.01-.07.02-.06.02-.07.01-.06.02-.07.01-.06.01-.07.01-.06.03-.13.01-.13.01-.06.01-.06.01-.07.01-.06v-.07l.01-.06v-.06-.07l.01-.06v-.2m0 2.09h0 0 0-.01 0 0-.01 0-.01-.01-.01-.01-.01-.03-.02-.03-.03-.03-.02-.02-.02-.1"/><path d="M243.85 102.589v-2.09m-.37-2.09l.02-.07.02-.06.02-.07.02-.07.02-.07.02-.06.02-.07.02-.07.01-.06.02-.07.02-.06.01-.07.02-.06.01-.06.01-.07.01-.06.03-.13.01-.13.01-.06.01-.07.01-.06.01-.07v-.06l.01-.06v-.07-.06l.01-.07v-.2m0 4.18v-.07-.06-.07l-.01-.06v-.07-.06l-.01-.07v-.06l-.01-.07-.01-.06-.01-.06-.01-.07-.01-.12-.03-.13-.01-.07-.01-.06-.01-.07-.02-.06-.01-.07-.02-.06-.02-.07-.01-.06-.02-.07-.02-.06-.02-.07-.02-.07-.02-.06-.06-.21"/><path d="M243.85 100.499v-4.18m0 0v-.06-.07-.06l-.01-.07v-.06-.07l-.01-.06v-.06l-.01-.07-.01-.06-.01-.07-.01-.06-.01-.13-.03-.13-.01-.06-.01-.07-.01-.06-.02-.06-.01-.07-.02-.06-.02-.07-.01-.06-.02-.07-.02-.07-.02-.06-.02-.07-.02-.07-.02-.07-.02-.06-.02-.07"/><path d="M243.85 96.319v-2.08"/><path d="M243.48 94.239h.02.02.02.02.02.02.02.02.03.03.03.02.03.01.01.01.01.01 0 .01 0 0 .01 0m-4.41 8.35h-.03-.02-.02-.02-.02-.02-.02-.02-.03-.03-.03-.02-.02-.02-.01-.01-.01 0-.01 0-.01 0 0-.01"/><path d="M239.06 100.499v.06.07l.01.07v.06.07l.01.06v.06l.01.07v.06l.01.07.01.06.01.06.02.13.02.13.01.06.01.07.02.06.01.07.02.06.01.07.02.06.01.07.02.06.02.07.02.07.02.06.02.07.02.07.02.07.03.07"/><path d="M239.06 100.499v2.09m0-8.35h0 0 .01 0 0 .01 0 .01 0 .01.01.01.02.02.02.03.03.03.02.02.02.11"/><path d="M239.06 94.239v2.08"/><path d="M239.44 94.239l-.03.07-.02.06-.02.07-.02.07-.02.07-.02.06-.02.07-.02.07-.01.06-.02.07-.01.06-.02.07-.01.06-.02.06-.01.07-.01.06-.02.13-.02.13-.01.06-.01.07-.01.06v.07l-.01.06v.06l-.01.07v.06.07l-.01.06v.13m0 0v.07.07l.01.06v.07.06l.01.07v.06l.01.06v.07l.01.06.01.07.01.06.02.13.02.13.01.06.01.07.02.06.01.06.02.07.01.06.02.07.01.06.02.07.02.07.02.06.02.07.02.07.02.07.02.06.03.07"/><path d="M239.06 96.319v4.18"/><path d="M239.44 98.409l-.03.07-.02.07-.02.07-.02.06-.02.07-.02.07-.02.06-.02.07-.01.06-.02.07-.01.06-.02.07-.01.06-.02.07-.01.06-.01.07-.02.13-.02.12-.01.07-.01.06-.01.06v.07l-.01.06v.07l-.01.06v.07.06l-.01.07v.13m4.42-6.26h-4.04m4.04 4.17h-4.04m4.04 4.18h-4.04m4.04 37.31l.02-.06.02-.07.02-.07.02-.07.02-.06.02-.07.02-.07.02-.06.01-.07.02-.06.02-.07.01-.06.02-.07.01-.06.01-.07.01-.06.03-.13.01-.13.01-.06.01-.06.01-.07.01-.06v-.07l.01-.06v-.07-.06l.01-.07v-.19m0 2.08h0 0 0-.01 0 0-.01 0-.01-.01-.01-.01-.01-.03-.02-.03-.03-.03-.02-.02-.02-.1"/><path d="M243.85 139.899v-2.08m-.37-2.09l.02-.07.02-.07.02-.06.02-.07.02-.07.02-.06.02-.07.02-.07.01-.06.02-.07.02-.06.01-.07.02-.06.01-.07.01-.06.01-.06.03-.13.01-.13.01-.06.01-.07.01-.06.01-.07v-.06l.01-.07v-.06-.06l.01-.07v-.2m0 4.18v-.07-.06-.07l-.01-.06v-.07-.06l-.01-.07v-.06l-.01-.07-.01-.06-.01-.06-.01-.07-.01-.13-.03-.12-.01-.07-.01-.06-.01-.07-.02-.06-.01-.07-.02-.06-.02-.07-.01-.06-.02-.07-.02-.06-.02-.07-.02-.07-.02-.06-.06-.21"/><path d="M243.85 137.819v-4.18m0 0v-.06-.07-.06l-.01-.07v-.06-.07l-.01-.06v-.07l-.01-.06-.01-.06-.01-.07-.01-.06-.01-.13-.03-.13-.01-.06-.01-.07-.01-.06-.02-.07-.01-.06-.02-.07-.02-.06-.01-.07-.02-.06-.02-.07-.02-.06-.02-.07-.02-.07-.02-.07-.02-.06-.02-.07"/><path d="M243.85 133.639v-2.08"/><path d="M243.48 131.559h.02.02.02.02.02.02.02.02.03.03.03.02.03.01.01.01.01.01 0 .01 0 0 .01 0m-4.41 8.34h-.03-.02-.02-.02-.02-.02-.02-.02-.03-.03-.03-.02-.02-.02-.01-.01-.01 0-.01 0-.01 0 0-.01"/><path d="M239.06 137.819v.06.07l.01.06v.07.06l.01.07v.06l.01.07v.06l.01.07.01.06.01.06.02.13.02.13.01.06.01.07.02.06.01.07.02.06.01.07.02.06.01.07.02.06.02.07.02.07.02.06.02.07.02.07.02.07.03.06"/><path d="M239.06 137.819v2.08m0-8.34h0 0 .01 0 0 .01 0 .01 0 .01.01.01.02.02.02.03.03.03.02.02.02.11"/><path d="M239.06 131.559v2.08"/><path d="M239.44 131.559l-.03.07-.02.06-.02.07-.02.07-.02.07-.02.06-.02.07-.02.06-.01.07-.02.06-.01.07-.02.06-.01.07-.02.06-.01.07-.01.06-.02.13-.02.13-.01.06-.01.07-.01.06v.06l-.01.07v.06l-.01.07v.06.07l-.01.06v.13m0 0v.07.07l.01.06v.07.06l.01.06v.07l.01.06v.07l.01.06.01.07.01.06.02.13.02.13.01.06.01.06.02.07.01.06.02.07.01.06.02.07.01.06.02.07.02.07.02.06.02.07.02.07.02.06.02.07.03.07"/><path d="M239.06 133.639v4.18"/><path d="M239.44 135.729l-.03.07-.02.07-.02.07-.02.06-.02.07-.02.07-.02.06-.02.07-.01.06-.02.07-.01.06-.02.07-.01.06-.02.07-.01.06-.01.07-.02.12-.02.13-.01.07-.01.06-.01.06v.07l-.01.06v.07l-.01.06v.07.06l-.01.07v.13m4.42-6.26h-4.04m4.04 4.17h-4.04m4.04 4.17h-4.04m47.75-45.66l-.02.07-.02.06-.02.07-.02.07-.02.07-.02.06-.02.07-.02.07-.02.06-.01.07-.02.06-.01.07-.02.06-.01.06-.01.07-.01.06-.03.13-.02.13v.06l-.01.07-.01.06-.01.07v.06l-.01.06v.07.06l-.01.07v.19m0-2.08h0 0 0 .01 0 0 .01 0 .01.01.01 0 .02.03.02.03.03.03.02.02.02.1"/><path d="M286.82 94.239v2.08m.37 2.09l-.02.07-.02.07-.02.07-.02.06-.02.07-.02.07-.02.06-.02.07-.02.06-.01.07-.02.06-.01.07-.02.06-.01.07-.01.06-.01.07-.03.13-.02.12v.07l-.01.06-.01.06-.01.07v.06l-.01.07v.06.07l-.01.06v.2m0-4.18v.07.07.06l.01.07v.06.07l.01.06v.06l.01.07.01.06.01.07v.06l.02.13.03.13.01.06.01.07.01.06.02.06.01.07.02.06.01.07.02.06.02.07.02.07.02.06.02.07.02.07.02.07.02.06.02.07"/><path d="M286.82 96.319v4.18m0 0v.06.07.07l.01.06v.07.06l.01.06v.07l.01.06.01.07.01.06v.06l.02.13.03.13.01.06.01.07.01.06.02.07.01.06.02.07.01.06.02.07.02.06.02.07.02.07.02.06.08.28"/><path d="M286.82 100.499v2.09m.37 0h-.02-.02-.02-.02-.02-.02-.02-.02-.03-.03-.03-.02-.03-.02 0-.01-.01-.01 0-.01 0 0-.01 0m4.41-8.35h.03.02.02.02.02.02.02.01.04.03.03.02.02.02.01.01.01 0 .01 0 .01 0 0 .01m0 2.08v-.06-.07l-.01-.06v-.07-.06l-.01-.07v-.06l-.01-.06v-.07l-.01-.06-.01-.07-.01-.06-.02-.13-.02-.13-.01-.06-.01-.07-.02-.06-.01-.06-.02-.07-.01-.06-.02-.07-.02-.06-.01-.07-.02-.07-.02-.06-.02-.07-.02-.07-.02-.07-.02-.06-.03-.07"/><path d="M291.61 96.319v-2.08m0 8.35h0 0-.01 0 0-.01 0-.01 0-.01-.01-.01-.02-.02-.02-.03-.03-.04-.01-.02-.02-.11"/><path d="M291.61 102.589v-2.09m-.38 2.09l.03-.07.02-.07.02-.07.02-.07.02-.06.02-.07.02-.07.01-.06.02-.07.02-.06.01-.07.02-.06.01-.07.02-.06.01-.07.01-.06.02-.13.02-.13.01-.06.01-.06.01-.07v-.06l.01-.07v-.06l.01-.06v-.07-.06l.01-.07v-.13m0 0v-.07-.06l-.01-.07v-.06-.07l-.01-.06v-.07l-.01-.06v-.07l-.01-.06-.01-.06-.01-.07-.02-.12-.02-.13-.01-.07-.01-.06-.02-.07-.01-.06-.02-.07-.01-.06-.02-.07-.02-.06-.01-.07-.02-.06-.02-.07-.02-.07-.02-.06-.02-.07-.02-.07-.03-.07"/><path d="M291.61 100.499v-4.18m-.38 2.09l.03-.07.02-.06.02-.07.02-.07.02-.07.02-.06.02-.07.01-.07.02-.06.02-.07.01-.06.02-.07.01-.06.02-.06.01-.07.01-.06.02-.13.02-.13.01-.06.01-.07.01-.06v-.07l.01-.06v-.06l.01-.07v-.06-.07l.01-.06v-.14m-4.42 6.27h4.04m-4.04-4.18h4.04m-4.04-4.17h4.04m-4.04 37.32l-.02.07-.02.06-.02.07-.02.07-.02.07-.02.06-.02.07-.02.06-.02.07-.01.06-.02.07-.01.06-.02.07-.01.06-.01.07-.01.06-.03.13-.02.13v.06l-.01.07-.01.06-.01.06v.07l-.01.06v.07.06l-.01.07v.19m0-2.08h0 0 0 .01 0 0 .01 0 .01.01.01 0 .02.03.02.03.03.03.02.02.02.1"/><path d="M286.82 131.559v2.08m.37 2.09l-.02.07-.02.07-.02.07-.02.06-.02.07-.02.07-.02.06-.02.07-.02.06-.01.07-.02.06-.01.07-.02.06-.01.07-.01.06-.01.07-.03.12-.02.13v.07l-.01.06-.01.06-.01.07v.06l-.01.07v.06.07l-.01.06v.2m0-4.18v.07.07.06l.01.07v.06.06l.01.07v.06l.01.07.01.06.01.07v.06l.02.13.03.13.01.06.01.06.01.07.02.06.01.07.02.06.01.07.02.06.02.07.02.07.02.06.02.07.02.07.02.06.04.14"/><path d="M286.82 133.639v4.18m0 0v.06.07.06l.01.07v.06.07l.01.06v.07l.01.06.01.07.01.06v.06l.02.13.03.13.01.06.01.07.01.06.02.07.01.06.02.07.01.06.02.07.02.06.02.07.02.07.02.06.02.07.02.07.02.07.02.06"/><path d="M286.82 137.819v2.08m.37 0h-.02-.02-.02-.02-.02-.02-.02-.02-.03-.03-.03-.02-.03-.02 0-.01-.01-.01 0-.01 0 0-.01 0m4.41-8.34h.03.02.02.02.02.02.02.01.04.03.03.02.02.02.01.01.01 0 .01 0 .01 0 0 .01m0 2.08v-.06-.07l-.01-.06v-.07-.06l-.01-.07v-.06l-.01-.07v-.06l-.01-.06-.01-.07-.01-.06-.02-.13-.02-.13-.01-.06-.01-.07-.02-.06-.01-.07-.02-.06-.01-.07-.02-.06-.02-.07-.01-.06-.02-.07-.02-.06-.02-.07-.02-.07-.02-.07-.02-.06-.03-.07"/><path d="M291.61 133.639v-2.08m0 8.34h0 0-.01 0 0-.01 0-.01 0-.01-.01-.01-.02-.02-.02-.03-.03-.04-.01-.02-.02-.11"/><path d="M291.61 139.899v-2.08m-.38 2.08l.03-.06.02-.07.02-.07.02-.07.02-.06.02-.07.02-.07.01-.06.02-.07.02-.06.01-.07.02-.06.01-.07.02-.06.01-.07.01-.06.02-.13.02-.13.01-.06.01-.06.01-.07v-.06l.01-.07v-.06l.01-.07v-.06-.07l.01-.06v-.13m0 0v-.07-.06l-.01-.07v-.06-.07l-.01-.06v-.07l-.01-.06v-.07l-.01-.06-.01-.06-.01-.07-.02-.13-.02-.12-.01-.07-.01-.06-.02-.07-.01-.06-.02-.07-.01-.06-.02-.07-.02-.06-.01-.07-.02-.06-.02-.07-.02-.07-.02-.06-.02-.07-.02-.07-.03-.07"/><path d="M291.61 137.819v-4.18m-.38 2.09l.03-.07.02-.07.02-.06.02-.07.02-.07.02-.06.02-.07.01-.07.02-.06.02-.07.01-.06.02-.07.01-.06.02-.07.01-.06.01-.06.02-.13.02-.13.01-.06.01-.07.01-.06v-.07l.01-.06v-.07l.01-.06v-.06-.07l.01-.06v-.14m-4.42 6.26h4.04m-4.04-4.17h4.04"/><path d="M287.19 131.559h4.04m-230.17 80.77v-62.85m408.55 0H312.55m-17.75 0h-58.93"/><path d="M218.12 149.479H61.06m0 62.85h408.55"/><path d="M469.61 149.479v62.85m-237.17-67.39l-12.67 2.54m-1.11.22l-.96.19m0 0v-3.44"/><path d="M217.7 144.449h14.74m0 0v.49m65.79 0l12.67 2.54m1.11.22l.96.19"/><path d="M312.97 147.889v-3.44m0 0h-14.74m0 0v.49"/><use xlink:href="#B"/><use xlink:href="#C"/><path d="M229.49 140.659h-2.21"/><use xlink:href="#D"/><use xlink:href="#E"/><path d="M227.28 140.659h-4.42"/><use xlink:href="#F"/><path d="M222.86 140.659h-2.21"/><use xlink:href="#G"/><path d="M220.65 144.069v-3.02m8.84 3.02h-2.21m-4.42 0h-2.21m6.63 0h-2.21"/><path d="M225.07 144.069h-2.21m2.21 0v-3.02m4.42 3.02v-3.02m-1.47 4.78v.27m-5.9.9v.08m7.37-3.01v.38m-8.84-.38v.38"/><use xlink:href="#B" x="80.53"/><use xlink:href="#C" x="80.53"/><path d="M310.02 140.659h-2.21"/><use xlink:href="#D" x="80.53"/><use xlink:href="#E" x="80.53"/><path d="M307.81 140.659h-4.42"/><use xlink:href="#F" x="80.53"/><path d="M303.39 140.659h-2.21"/><use xlink:href="#G" x="80.53"/><path d="M301.18 144.069v-3.02m8.84 3.02h-2.21m-4.42 0h-2.21m6.63 0h-2.21"/><path d="M305.6 144.069h-2.21m2.21 0v-3.02m4.42 3.02v-3.02m-1.47 5.95v.08m-5.9-1.25v.27m7.37-2.03v.38m-8.84-.38v.38m-55.25-47.88v3.68"/><path d="M245.32 100.869v-4.91m.61 4.29l-.61.62"/><path d="M245.93 96.569l-.61-.61m-14.01 2.45l-.02.07-.02.06-.02.06-.02.06-.02.06-.02.06-.01.06-.02.06-.01.06-.02.06-.01.06-.02.06-.01.06-.01.05-.01.06-.01.06-.02.11-.02.11-.01.11-.01.11-.01.11-.01.11v.22"/></g><path d="M230.971 97.248v.07.07l.011.07.011.07.011.07.011.07.021.07.021.076.011.032.011.038.011.038.011.038.021.032.011.038.021.038.011.038.021.038.011.038.021.038.021.038.021.038.021.045.042.076" stroke-width=".436"/><path d="M230.98 97.366v2.883" stroke-width=".449"/><g class="B"><path d="M230.98 100.249v.11.12l.01.11.01.11.01.11.01.11.02.11.02.11.01.06.01.06.01.05.01.06.02.06.01.06.02.05.01.06.02.06.01.06.02.06.02.07.02.06.02.06.02.06.02.07"/><path d="M230.98 100.249v1.85m.33 0h-.02-.02-.02-.02-.02-.02-.01-.02-.03-.03-.02-.02-.02-.02-.01-.03"/><path d="M233.83 102.099h-2.52m2.52-7.37v1.84"/><path d="M233.83 100.249v1.85m0-5.53v1.84m0 0v1.84m0-1.84h-2.52"/></g><path d="M233.83 94.729h-2.118" stroke-width=".462"/><g class="B"><path d="M243.85 95.959h1.47m-1.47 4.91h1.47m-11.49-6.14h.31m-.31 7.37h.31m11.79 31.79v3.68m-.61.62v-4.91"/><path d="M245.93 137.569l-.61.62m.61-4.3l-.61-.61m-14.01-1.23l-.02.06-.02.06-.02.06-.02.07-.02.06-.02.06-.01.06-.02.06-.01.06-.02.06-.01.05-.02.06-.01.06-.01.06-.01.05-.01.06-.02.11-.02.11-.01.12-.01.11-.01.11-.01.11v.22"/><path d="M230.98 132.049h0 0 .01.01.01.01.02.02.02.02.03.03.02.01.02.02.02.06"/><path d="M230.98 132.049v1.84m.33 1.84l-.02.06-.02.07-.02.06-.02.06-.02.06-.02.06-.01.06-.02.06-.01.06-.02.06-.01.06-.02.06-.01.05-.01.06-.01.06-.01.06-.02.11-.02.11-.01.11-.01.11-.01.11-.01.11v.22"/><path d="M230.98 133.889v.11.11l.01.11.01.11.01.11.01.11.02.11.02.12.01.05.01.06.01.06.01.05.02.06.01.06.02.06.01.06.02.06.01.06.02.06.02.06.02.06.02.06.02.07.02.06"/><path d="M230.98 133.889v3.68m0 0v.11.11l.01.11.01.11.01.12.01.11.02.11.02.11.01.06.01.05.01.06.01.06.02.06.01.05.02.06.01.06.02.06.01.06.02.06.02.06.02.07.02.06.02.06.02.07"/><path d="M230.98 137.569v1.85m.33 0h-.02-.02-.02-.02-.02-.02-.01-.02-.03-.03-.02-.02-.02-.02-.01-.03"/><path d="M233.83 139.419h-2.52m2.52-7.37v1.84"/><path d="M233.83 137.569v1.85m0-5.53v1.84m0 0v1.84m0-1.84h-2.52m2.52-3.68h-2.52m12.54 1.23h1.47m-1.47 4.91h1.47m-11.49-6.14h.31m-.31 7.37h.31m50.6-39.17v-3.68m.61-.61v4.91m-.61-4.3l.61-.61m-.61 4.29l.61.62m14.01 1.23l.02-.07.02-.06.02-.06.02-.06.02-.07.02-.06.01-.06.02-.06.01-.06.02-.05.01-.06.02-.06.01-.06.01-.05.01-.06.01-.06.02-.11.02-.11.01-.11.01-.11.01-.11.01-.11v-.23m0 1.85h0 0-.01-.01-.01-.01-.02-.02-.02-.02-.03-.03-.02-.01-.02-.1"/><path d="M299.69 102.099v-1.85"/></g><path d="M299.351 98.419l.021-.04.021-.04.021-.046.021-.04.021-.04.021-.04.011-.04.021-.04.011-.04.021-.04.011-.04.021-.033.011-.04.011-.04.011-.04.011-.033.021-.079.021-.073.011-.073.011-.073.011-.073.011-.073v-.145" stroke-width=".439"/><path d="M299.69 100.249v-.11-.11l-.01-.11-.01-.11-.01-.11-.01-.11-.02-.11-.02-.11-.01-.06-.01-.06-.01-.05-.01-.06-.02-.06-.01-.06-.02-.06-.01-.06-.02-.06-.01-.06-.02-.06-.02-.06-.02-.06-.02-.06-.02-.06-.02-.07" class="B"/><path d="M299.69 100.249V97.29" stroke-width=".454"/><path d="M296.84 94.729h2.07" stroke-width=".458"/><g class="B"><path d="M296.84 102.099v-1.85m0-3.68v-1.84m0 5.52v-1.84m0 0v-1.84"/><path d="M296.84 98.409h2.52m-2.52 3.69h2.52m-12.54-1.23h-1.47m1.47-4.91h-1.47m11.49 6.14h-.31m.31-7.37h-.31m-11.79 42.84v-3.68m.61-.61v4.91"/><path d="M284.74 133.889l.61-.61m-.61 4.29l.61.62m14.01 1.23l.02-.07.02-.06.02-.06.02-.07.02-.06.02-.06.01-.06.02-.06.01-.06.02-.06.01-.05.02-.06.01-.06.01-.06.01-.05.01-.06.02-.11.02-.11.01-.11.01-.12.01-.11.01-.11v-.22m0 1.85h0 0-.01-.01-.01-.01-.02-.02-.02-.02-.03-.03-.02-.01-.02-.1"/><path d="M299.69 139.419v-1.85m-.33-1.84l.02-.06.02-.07.02-.06.02-.06.02-.06.02-.06.01-.06.02-.06.01-.06.02-.06.01-.06.02-.06.01-.05.01-.06.01-.06.01-.05.02-.12.02-.11.01-.11.01-.11.01-.11.01-.11v-.22m0 3.68v-.11-.11l-.01-.11-.01-.11-.01-.11-.01-.11-.02-.11-.02-.11-.01-.06-.01-.06-.01-.06-.01-.05-.02-.06-.01-.06-.02-.06-.01-.06-.02-.06-.01-.06-.02-.06-.02-.06-.02-.06-.02-.06-.02-.07-.02-.06"/><path d="M299.69 137.569v-3.68m0 0v-.11-.11l-.01-.11-.01-.11-.01-.11-.01-.12-.02-.11-.02-.11-.01-.06-.01-.05-.01-.06-.01-.06-.02-.06-.01-.05-.02-.06-.01-.06-.02-.06-.01-.06-.02-.06-.02-.06-.02-.07-.06-.18"/><path d="M299.69 133.889v-1.84m-.33 0h.02.02.02.02.02.02.01.02.03.03.02.02.02.02.01.01.01.01m-2.85 0h2.52m-2.52 7.37v-1.85"/><path d="M296.84 133.889v-1.84m0 5.52v-1.84m0 0v-1.84m0 1.84h2.52m-2.52 3.69h2.52m-12.54-1.23h-1.47m1.47-4.91h-1.47m11.49 6.14h-.31"/><path d="M296.84 132.049h-.31m-58.69-43.46v60.89m-1.97-60.89h1.97m54.99 0h1.97m-1.97 60.89v-60.89m-56.96 60.89v-62.85m0 0h-17.75m0 0v.92m0 0l.1.43.28.34.41.17m0 0l13.65 2.27m0 0l.62.22.51.43.34.57.11.66m0 0v50.83m0 0l-.11.66-.34.57-.51.42-.62.22m0 0l-13.65 2.28m0 0l-.41.17-.28.34-.1.43m0 0v.92"/><path d="M218.12 149.479h17.75m76.68-62.85H294.8m17.75.92v-.92m-.79 1.86l.41-.17.28-.34.1-.43m-14.44 3.21l13.65-2.27m-15.23 4.15l.11-.66.34-.57.51-.43.62-.22m-1.58 52.71v-50.83m1.58 52.7l-.62-.22-.51-.42-.34-.57-.11-.66"/><path d="M311.76 147.619l-13.65-2.28m14.44 3.22l-.1-.43-.28-.34-.41-.17m.79 1.86v-.92m-17.75.92h17.75m-17.75-62.85v62.85m-56.96-61.87v.98m54.99 0v-.98m-54.99 0h54.99m208.2 148.29l-.01-1.25-.03-1.25-.05-1.26-.07-1.25-.09-1.25-.11-1.24-.13-1.25-.15-1.24-.17-1.25-.19-1.23-.2-1.24-.23-1.23-.25-1.23-.27-1.22-.29-1.22-.3-1.22-.33-1.21-.34-1.2-.37-1.2-.38-1.19-.4-1.19-.42-1.18-.44-1.17-.46-1.17-.48-1.16-.5-1.15-.51-1.14-.53-1.14-.55-1.12-.57-1.12-.59-1.11-.6-1.09-.62-1.09-.64-1.08-.65-1.07-.67-1.06-.69-1.04-.71-1.04-.72-1.02-.74-1.01-.75-1-.77-.99-.02-.03m-4.3-4.98l-.62-.65-.88-.9-.89-.88-.9-.87-.92-.85-.93-.84-.94-.83-.96-.81-.97-.79-.98-.78-.78-.6m-5.41-3.75l-1.02-.64-1.07-.65-1.08-.63-1.1-.61-1.1-.59-1.11-.58-1.12-.56-1.13-.54-1.14-.52-1.15-.51-.63-.26m-6.17-2.3l-.23-.08-1.2-.37-1.2-.35-1.21-.34-1.21-.32-1.22-.29-1.22-.28-1.23-.26-1.23-.24-1.23-.22-1.24-.19-1.24-.18-1.24-.16-1.24-.14-1.25-.12-1.25-.1-1.25-.08-1.25-.06-1.25-.04-1.26-.02h-1.25l-1.25.02-1.26.04-1.25.06-1.25.08-1.25.1-1.24.12-1.25.14-1.24.16-1.24.18-1.24.19-1.23.22-1.23.24-1.23.26-1.22.28-1.22.29-1.21.32-1.21.34-1.2.35-1.19.37-1.19.4-1.19.41-.97.35m-6.07 2.55l-1.04.5-1.12.56-1.11.58-1.1.59-1.09.61-1.09.63-1.07.65-1.06.66-1.06.68-1.04.7-.6.42m-5.24 3.98l-.16.12-.95.81-.95.83-.93.84-.92.85-.9.87-.89.88-.87.9-.87.91-.84.92-1.12 1.27m-4.08 5.15l-.3.41-.72 1.02-.71 1.04-.68 1.04-.68 1.06-.65 1.07-.64 1.08-.62 1.09-.6 1.09-.59 1.11-.57 1.12-.55 1.12-.53 1.14-.51 1.14-.5 1.15-.48 1.16-.45 1.17-.44 1.17-.43 1.18-.4 1.19-.38 1.19-.37 1.2-.34 1.2-.33 1.21-.3 1.22-.29 1.22-.27 1.22-.25 1.23-.22 1.23-.21 1.24-.19 1.23-.17 1.25-.15 1.24-.13 1.25-.11 1.24-.09 1.25-.07 1.25-.05 1.26-.03 1.25-.01 1.25.01 1.25.03 1.26.03.78m.55 6.56l.02.15.17 1.24.19 1.24.21 1.23.22 1.23.25 1.23.27 1.23.29 1.22.3 1.21.33 1.21.34 1.21.15.46m2.16 6.21l.16.42.48 1.16.5 1.15.51 1.14.53 1.14.55 1.12.57 1.12.59 1.11.6 1.1.62 1.09.64 1.07.09.16m3.65 5.48l.44.61.75 1 .77.99.79.97.8.97.82.95.83.93.84.93.87.91.87.89.89.89.9.86.92.86.93.84.95.82.95.81.97.79.98.78 1 .76 1 .75 1.02.73 1.03.71 1.04.7 1.06.68 1.06.66 1.07.65 1.09.63 1.09.61 1.1.6 1.11.57 1.12.56 1.13.54 1.14.53 1.15.5 1.15.49 1.17.46 1.17.45 1.17.43 1.19.42 1.19.39 1.19.37 1.2.36.52.14m6.4 1.5l.4.08 1.23.22 1.24.2 1.24.18 1.24.16 1.25.14 1.24.12 1.25.1 1.25.07 1.25.06 1.26.04.23.01m6.58-.14l.7-.04 1.25-.1 1.25-.12 1.24-.14 1.24-.16 1.24-.18 1.24-.2 1.23-.22 1.23-.24 1.23-.26 1.16-.26m6.33-1.77l.96-.31 1.18-.42 1.18-.43 1.16-.45 1.17-.46 1.15-.49 1.15-.5 1.14-.53 1.13-.54 1.12-.56 1.11-.57 1.1-.6 1.1-.61 1.08-.63 1.07-.65 1.07-.66 1.05-.68 1.04-.7 1.03-.71 1.02-.73 1-.75 1-.76.98-.78.97-.79.96-.81.94-.82.93-.84.92-.86.9-.86.89-.89.88-.89.86-.91.84-.93.83-.93.82-.95.8-.97.79-.97.77-.99.75-1 .74-1.02.72-1.02.71-1.03.15-.24m3.41-5.63l.31-.57.59-1.11.57-1.12.55-1.12.53-1.14.51-1.14.5-1.15.48-1.16.46-1.16.44-1.18.41-1.16m1.9-6.3l.23-.92.29-1.22.27-1.23.25-1.23.23-1.23.2-1.23.19-1.24.17-1.24.15-1.25.13-1.24.08-.93m-313.98-6.58l-.01-1.25-.03-1.25-.05-1.26-.07-1.25-.09-1.25-.11-1.24-.13-1.25-.15-1.24-.17-1.25-.19-1.23-.21-1.24-.23-1.23-.24-1.23-.27-1.22-.29-1.22-.3-1.22-.33-1.21-.35-1.2-.36-1.2-.38-1.19-.41-1.19-.42-1.18-.44-1.17-.46-1.17-.47-1.16-.5-1.15-.51-1.14-.53-1.14-.55-1.12-.57-1.12-.59-1.11-.6-1.09-.62-1.09-.64-1.08-.65-1.07-.68-1.06-.69-1.04-.7-1.04-.72-1.02-.74-1.01-.75-1-.77-.99-.03-.03m-4.3-4.98l-.62-.65-.87-.9-.89-.88-.9-.87-.92-.85-.93-.84-.95-.83-.95-.81-.97-.79-.98-.78-.79-.6m-5.4-3.75l-1.02-.64-1.07-.65-1.09-.63-1.09-.61-1.1-.59-1.11-.58-1.13-.56-1.13-.54-1.13-.52-1.15-.51-.63-.26m-6.17-2.3l-.24-.08-1.19-.37-1.2-.35-1.21-.34-1.21-.32-1.22-.29-1.22-.28-1.23-.26-1.23-.24-1.23-.22-1.24-.19-1.24-.18-1.24-.16-1.25-.14-1.24-.12-1.25-.1-1.25-.08-1.26-.06-1.25-.04-1.25-.02h-1.25l-1.26.02-1.25.04-1.25.06-1.25.08-1.25.1-1.25.12-1.24.14-1.24.16-1.24.18-1.24.19-1.23.22-1.23.24-1.23.26-1.22.28-1.22.29-1.21.32-1.21.34-1.2.35-1.2.37-1.19.4-1.18.41-.97.35m-6.07 2.55l-1.04.5-1.12.56-1.11.58-1.1.59-1.1.61-1.08.63-1.07.65-1.07.66-1.05.68-1.04.7-.6.42m-5.25 3.98l-.15.12-.96.81-.94.83-.93.84-.92.85-.9.87-.89.88-.88.9-.86.91-.84.92-.84.94-.28.33m-4.09 5.15l-.29.41-.72 1.02-.71 1.04-.69 1.04-.67 1.06-.65 1.07-.64 1.08-.62 1.09-.61 1.09-.58 1.11-.57 1.12-.55 1.12-.53 1.14-.52 1.14-.49 1.15-.48 1.16-.46 1.17-.44 1.17-.42 1.18-.4 1.19-.38 1.19-.37 1.2-.34 1.2-.33 1.21-.31 1.22-.28 1.22-.27 1.22-.25 1.23-.23 1.23-.21 1.24-.18 1.23-.17 1.25-.15 1.24-.13 1.25-.11 1.24-.09 1.25-.07 1.25-.05 1.26-.03 1.25-.01 1.25.01 1.25.03 1.26.03.78m.55 6.56l.02.15.17 1.24.18 1.24.21 1.23.23 1.23.25 1.23.27 1.23.28 1.22.31 1.21.33 1.21.34 1.21.14.46m2.17 6.21l.16.42.48 1.16.49 1.15.52 1.14.53 1.14.55 1.12.57 1.12.58 1.11.61 1.1.62 1.09.64 1.07.09.16m3.64 5.48l.45.61.75 1 .77.99.79.97.8.97.81.95.84.93.84.93.86.91.88.89.89.89.9.86.92.86.93.84.94.82.96.81.97.79.98.78 1 .76 1 .75 1.02.73 1.03.71 1.04.7 1.05.68 1.07.66 1.07.65 1.08.63 1.1.61 1.1.6 1.11.57 1.12.56 1.13.54 1.14.53 1.15.5 1.15.49 1.16.46 1.17.45 1.18.43 1.18.42 1.19.39 1.2.37 1.2.36.52.14m6.4 1.5l.4.08 1.23.22 1.24.2 1.24.18 1.24.16 1.24.14 1.25.12 1.25.1 1.25.07 1.25.06 1.25.04.24.01m6.58-.14l.7-.04 1.25-.1 1.24-.12 1.25-.14 1.24-.16 1.24-.18 1.24-.2 1.23-.22 1.23-.24 1.23-.26 1.15-.26m6.34-1.77l.95-.31 1.19-.42 1.17-.43 1.17-.45 1.16-.46 1.16-.49 1.15-.5 1.13-.53 1.13-.54 1.13-.56 1.11-.57 1.1-.6 1.09-.61 1.09-.63 1.07-.65 1.06-.66 1.06-.68 1.04-.7 1.03-.71 1.01-.73 1.01-.75 1-.76.98-.78.97-.79.95-.81.95-.82.93-.84.92-.86.9-.86.89-.89.87-.89.86-.91.85-.93.83-.93.82-.95.8-.97.79-.97.77-.99.75-1 .74-1.02.72-1.02.7-1.03.16-.24m3.41-5.63l.31-.57.59-1.11.57-1.12.55-1.12.53-1.14.51-1.14.5-1.15.47-1.16.46-1.16.44-1.18.42-1.16m1.9-6.3l.23-.92.29-1.22.27-1.23.24-1.23.23-1.23.21-1.23.19-1.24.17-1.24.15-1.25.13-1.24.08-.93m98.74-145.91h-.32m-39.14 0h-.32"/><path d="M285.23 97.359v-.79m-39.77.79v-.79m.31 1.11l-.07-.01-.06-.02-.06-.04-.05-.05-.04-.06-.02-.07-.01-.07m39.77 0l-.01.07-.02.07-.04.06-.05.05-.06.04-.07.02-.07.01m-10.85 0h0m-14.73 0h0m-29.84-11.05h-4.91m0 12.39h4.91"/><path d="M228.88 99.629h-3.69m0 0l-.61-.61m4.3.61l.61-.61m0-12.39v3.57m0 7.22v1.6m-4.91-12.39v2.55m0 8.24v1.6m81.51-12.39h-4.91m0 12.39h4.91m-.61.61h-3.69m0 0l-.61-.61m4.3.61l.61-.61m0-12.39v2.55m0 8.24v1.6m-4.91-12.39v3.57m0 7.22v1.6m-80.04-7.61v-2.95m11.79 2.95h-11.79m11.79-.49v.49m-11.79-2.95l11.79 2.46m64.81.49v-.49m0 0l11.79-2.46"/><path d="M309.53 88.459v2.95m0 0h-11.79m-74.76 0h-.02-.01l-.01.01h-.02l-.01.01h-.01l-.01.01-.01.01-.01.01-.01.01v.01l-.01.01v.01l-.01.02v.02m0 .96v.02.01l.01.01v.01l.01.01v.02l.01.01.01.01.01.01h.01l.01.01.01.01h.02.01.01l.02.01m8.13-1.23l.04.01.04.02.03.02.02.04.01.04m0 .96l-.01.04-.02.04-.03.03-.04.02-.04.01"/><path d="M222.84 91.539v.96m8.41-.96v.96m68.33-1.09h-.02-.01l-.01.01h-.01l-.02.01h-.01l-.01.01-.01.01-.01.01v.01l-.01.01-.01.01v.01.02l-.01.01v.01m0 .96v.02l.01.01v.01.01l.01.01.01.02v.01l.01.01.01.01h.01l.01.01.02.01h.01.01.01l.02.01m8.13-1.23l.04.01.04.02.03.02.02.04.01.04m0 .96l-.01.04-.02.04-.03.03-.04.02-.04.01"/><path d="M299.44 91.539v.96m8.41-.96v.96m-85.64 4.55l.04.02.04.02.04.03.04.02.04.02.04.01.04.02.03.02.04.02.04.01.04.02.04.01.07.03.07.03.08.02.07.02.04.01h.04l.03.01.04.01h.04l.03.01h.04l.04.01h.15"/><path d="M222.86 97.419h.56m0 0h.04.04.03.04l.04-.01h.04l.03-.01h.04l.04-.01.03-.01h.04l.04-.01.07-.02.07-.02.08-.03.07-.03.04-.01.04-.02.04-.01.03-.02.04-.02.04-.02.04-.01.04-.02.04-.02.04-.03.03-.02.04-.02"/><path d="M223.42 97.419h3.61"/><path d="M224.62 97.049l.08.02.08.02.08.03.08.02.08.02.07.01.08.02.07.02.08.02.08.01.07.02.08.01.07.02.07.01.08.01.07.02.15.02.15.02.07.01h.08l.07.01.07.01h.08l.07.01h.08l.07.01h.08.22m0 0h.08.08.07.08l.07-.01h.08l.07-.01h.07l.08-.01.07-.01h.08l.07-.01.15-.02.15-.02.07-.02.07-.01.08-.01.07-.02.08-.01.07-.02.08-.01.07-.02.08-.02.08-.02.07-.01.08-.02.08-.02.08-.03.07-.02.08-.02"/><path d="M227.03 97.419h3.62"/><path d="M229.44 97.049l.04.02.04.02.04.03.04.02.04.02.04.01.04.02.03.02.04.02.04.01.04.02.03.01.08.03.07.03.08.02.07.02.04.01h.03l.04.01.04.01h.04l.03.01h.04l.04.01h.03.12m0 0h.04.03.04.04l.04-.01h.03l.04-.01h.04l.04-.01.03-.01h.04l.04-.01.07-.02.07-.02.08-.03.07-.03.04-.01.04-.02.04-.01.03-.02.04-.02.04-.02.04-.01.04-.02.04-.02.03-.03.08-.04"/><path d="M230.65 97.419h.56m.64-4.41l-.04-.02-.04-.03-.03-.02-.04-.02-.04-.02-.04-.02-.04-.01-.04-.02-.03-.02-.04-.02-.04-.01-.04-.02-.07-.02-.08-.03-.07-.02-.07-.02-.04-.01-.04-.01h-.03l-.04-.01-.04-.01h-.04-.03l-.04-.01h-.04-.11m.56 0h-.56m-1.21.37l-.08-.02-.07-.03-.08-.02-.08-.02-.08-.02-.07-.02-.08-.01-.08-.02-.07-.02-.08-.02-.07-.01-.08-.02-.07-.01-.08-.01-.07-.02-.07-.01-.15-.02-.15-.02-.07-.01-.08-.01h-.07l-.08-.01-.07-.01h-.07-.08l-.07-.01h-.08-.23m3.62 0h-.04-.04-.04-.03l-.04.01h-.04-.03l-.04.01-.04.01h-.04l-.03.01-.04.01-.07.02-.08.02-.07.03-.08.02-.03.02-.04.01-.04.02-.04.02-.03.02-.04.01-.04.02-.04.02-.04.02-.04.02-.04.03-.04.02"/><path d="M230.65 92.639h-3.62m0 0h-.07-.08-.07-.08l-.07.01h-.08-.07l-.08.01-.07.01h-.07l-.08.01-.07.01-.15.02-.15.02-.07.01-.08.02-.07.01-.07.01-.08.02-.07.01-.08.02-.08.02-.07.02-.08.01-.07.02-.08.02-.08.02-.08.02-.08.03-.08.02"/><path d="M227.03 92.639h-3.61m1.2.37l-.04-.02-.03-.03-.04-.02-.04-.02-.04-.02-.04-.02-.04-.01-.04-.02-.03-.02-.04-.02-.04-.01-.04-.02-.07-.02-.08-.03-.07-.02-.07-.02-.04-.01-.04-.01h-.03l-.04-.01-.04-.01h-.03-.04l-.04-.01h-.04-.11m0 0h-.04-.04-.03-.04l-.04.01h-.04-.03l-.04.01-.04.01h-.03l-.04.01-.04.01-.07.02-.08.02-.07.03-.07.02-.04.02-.04.01-.04.02-.04.02-.03.02-.04.01-.04.02-.04.02-.04.02-.04.02-.04.03-.04.02"/><path d="M223.42 92.639h-.56m0 4.78l-.65-.37m9 .37l.64-.37m-.64-4.41l.64.37"/><path d="M222.86 92.639l-.65.37m9.64 4.04v-4.04m-2.41 4.04v-4.04m-4.82 4.04v-4.04m-2.41 4.04v-4.04m76.61 4.04l.04.02.03.02.04.03.04.02.04.02.04.01.04.02.04.02.03.02.04.01.04.02.04.01.07.03.08.03.07.02.07.02.04.01h.04l.03.01.04.01h.04l.03.01h.04l.04.01h.15"/><path d="M299.46 97.419h.56m0 0h.04.04.03.04l.04-.01h.04l.03-.01h.04l.04-.01.03-.01h.04l.04-.01.07-.02.08-.02.07-.03.07-.03.04-.01.04-.02.04-.01.04-.02.03-.02.04-.02.04-.01.04-.02.04-.02.04-.03.08-.04"/><path d="M300.02 97.419h3.62"/><path d="M301.23 97.049l.07.02.08.02.08.03.08.02.08.02.07.01.08.02.08.02.07.02.08.01.07.02.08.01.07.02.08.01.07.01.07.02.15.02.15.02.07.01h.08l.07.01.08.01h.07l.07.01h.08l.07.01h.08.23m0 0h.07.08.07.08l.07-.01h.08l.07-.01h.08l.07-.01.07-.01h.08l.07-.01.15-.02.15-.02.07-.02.07-.01.08-.01.07-.02.08-.01.07-.02.08-.01.07-.02.08-.02.08-.02.07-.01.08-.02.08-.02.08-.03.16-.04"/><path d="M303.64 97.419h3.61"/><path d="M306.05 97.049l.03.02.04.02.04.03.04.02.04.02.04.01.04.02.04.02.03.02.04.01.04.02.04.01.07.03.07.03.08.02.07.02.04.01h.04l.03.01.04.01h.04l.03.01h.04l.04.01h.04.11m0 0h.04.04.03.04l.04-.01h.04l.03-.01h.04l.04-.01.03-.01h.04l.04-.01.07-.02.08-.02.07-.03.07-.03.04-.01.04-.02.04-.01.03-.02.04-.02.04-.02.04-.01.04-.02.04-.02.04-.03.04-.02.03-.02"/><path d="M307.25 97.419h.56m.64-4.41l-.03-.02-.04-.03-.04-.02-.04-.02-.04-.02-.04-.02-.04-.01-.04-.02-.03-.02-.04-.02-.04-.01-.04-.02-.07-.02-.07-.03-.08-.02-.07-.02-.04-.01-.04-.01h-.03l-.04-.01-.04-.01h-.03-.04l-.04-.01h-.04-.11m.56 0h-.56m-1.2.37l-.08-.02-.08-.03-.08-.02-.08-.02-.08-.02-.07-.02-.08-.01-.08-.02-.07-.02-.08-.02-.07-.01-.08-.02-.07-.01-.08-.01-.07-.02-.07-.01-.15-.02-.15-.02-.07-.01-.08-.01h-.07l-.07-.01-.08-.01h-.07-.08l-.07-.01h-.08-.22m3.61 0h-.04-.04-.03-.04l-.04.01h-.04-.03l-.04.01-.04.01h-.03l-.04.01-.04.01-.07.02-.08.02-.07.03-.07.02-.04.02-.04.01-.04.02-.03.02-.04.02-.04.01-.04.02-.04.02-.04.02-.04.02-.04.03-.03.02"/><path d="M307.25 92.639h-3.61m0 0h-.08-.08-.07-.08l-.07.01h-.08-.07l-.07.01-.08.01h-.07l-.08.01-.07.01-.15.02-.15.02-.07.01-.07.02-.08.01-.07.01-.08.02-.07.01-.08.02-.07.02-.08.02-.08.01-.07.02-.08.02-.08.02-.08.02-.08.03-.07.02"/><path d="M303.64 92.639h-3.62m1.21.37l-.04-.02-.04-.03-.04-.02-.04-.02-.04-.02-.04-.02-.04-.01-.03-.02-.04-.02-.04-.02-.04-.01-.04-.02-.07-.02-.07-.03-.08-.02-.07-.02-.04-.01-.04-.01h-.03l-.04-.01-.04-.01h-.03-.04l-.04-.01h-.04-.11m0 0h-.04-.04-.03-.04l-.04.01h-.04-.03l-.04.01-.04.01h-.03l-.04.01-.04.01-.07.02-.07.02-.08.03-.07.02-.04.02-.04.01-.04.02-.03.02-.04.02-.04.01-.04.02-.04.02-.04.02-.04.02-.03.03-.04.02"/><path d="M300.02 92.639h-.56m0 4.78l-.64-.37m8.99.37l.64-.37m-.64-4.41l.64.37"/><path d="M299.46 92.639l-.64.37m9.63 4.04v-4.04m-2.4 4.04v-4.04m-4.82 4.04v-4.04m-2.41 4.04v-4.04m-33.49 119.32v19.64"/><path d="M265.33 212.329v19.64-163.69"/><path d="M265.33 212.329v19.64-144.05-19.64 144.05"/><path d="M265.33 212.329v19.64-144.05-19.64 144.05-124.41"/><path d="M265.33 212.329v19.64-144.05-19.64 144.05-19.64-104.77 104.77m157.14 43.21h19.64"/><path d="M422.47 235.899h98.2"/><path d="M422.47 235.899h19.64 18.54 60.02-117.85"/><path d="M422.47 235.899h19.64 18.54 60.02-98.2-98.21"/><path d="M422.47 235.899h19.64 18.54 60.02-98.2-19.65-18.54-60.02 98.21v-19.64"/><path d="M422.47 235.899h19.64 18.54 60.02-98.2-19.65-18.54-60.02 98.21v-98.21"/><path d="M422.47 235.899h19.64 18.54 60.02-98.2-19.65-18.54-60.02 98.21v-19.64-18.54-60.03 117.85"/><path d="M422.47 235.899h19.64 18.54 60.02-98.2-19.65-18.54-60.02 98.21v-19.64-18.54-60.03 98.21 98.21m-314.27-98.21h19.64"/><path d="M108.2 235.899h98.21"/><path d="M108.2 235.899h19.64 18.55 60.02H88.56"/><path d="M108.2 235.899h19.64 18.55 60.02-98.21H10"/><path d="M108.2 235.899h19.64 18.55 60.02-98.21-19.64-18.54H10h98.2v-19.64"/><path d="M108.2 235.899h19.64 18.55 60.02-98.21-19.64-18.54H10h98.2v-98.21"/><path d="M108.2 235.899h19.64 18.55 60.02-98.21-19.64-18.54H10h98.2v-19.64-18.54-60.03 117.85"/><path d="M108.2 235.899h19.64 18.55 60.02-98.21-19.64-18.54H10h98.2v-19.64-18.54-60.03 98.21 98.21m61.23-286.26l25.14-37.71"/><path d="M169.43 10.139l25.14 37.71m-70.9-18.85H108.2"/></g></g><path d="M123.67 32.089v-6.18l-15.47 3.09z" class="D"/><g fill="none" class="B C"><path d="M123.67 25.909l-15.47 3.09m0 0l15.47 3.09"/><path d="M123.67 32.089v-6.18m126.2 3.09h15.46"/></g><path d="M249.87 32.089l15.46-3.09-15.46-3.09z" class="D"/><g fill="none" class="B C"><path d="M249.87 32.089l15.46-3.09m0 0l-15.46-3.09"/><path d="M249.87 25.909v6.18m-126.2-3.09h40.57"/><path d="M209.29 28.999h40.58m15.46 29.46v-44.19m-157.13 113.6v-113.6m218.36 33.58l25.15-37.71"/><path d="M326.56 10.139l25.15 37.71M407 28.999h15.47"/></g><path d="M407 32.089l15.47-3.09-15.47-3.09z" class="D"/><g fill="none" class="B C"><path d="M407 32.089l15.47-3.09m0 0L407 25.909"/><path d="M407 25.909v6.18m-126.2-3.09h-15.47"/></g><path d="M280.8 32.089v-6.18l-15.47 3.09z" class="D"/><g fill="none" class="B C"><path d="M280.8 25.909l-15.47 3.09m0 0l15.47 3.09"/><path d="M280.8 32.089v-6.18m126.2 3.09h-40.57"/><path d="M321.37 28.999H280.8m-15.47 29.46v-44.19m157.14 113.6v-113.6"/></g><defs ><path id="B" d="M229.49 141.049l-.08-.02-.07-.03-.08-.02-.07-.02-.08-.03-.07-.02-.07-.02-.07-.01-.07-.02-.07-.02-.07-.02-.07-.01-.07-.02-.07-.01-.07-.01-.07-.02-.06-.01-.07-.01-.07-.01-.07-.01-.06-.01-.07-.01h-.06l-.07-.01h-.07l-.06-.01h-.07l-.07-.01h-.06-.2"/><path id="C" d="M229.49 140.659h0 0 0 0v.01h0v.01h0v.01h0v.01.01.01.01.01.01.02.01.01.02.01.02.02.02.01.02.02.03.02.07"/><path id="D" d="M225.07 141.049l-.08-.02-.07-.03-.08-.02-.07-.02-.07-.03-.08-.02-.07-.02-.07-.01-.07-.02-.07-.02-.07-.02-.07-.01-.07-.02-.07-.01-.07-.01-.07-.02-.06-.01-.07-.01-.07-.01-.06-.01-.07-.01-.07-.01h-.06l-.07-.01h-.07l-.06-.01h-.07l-.06-.01h-.07-.2"/><path id="E" d="M227.28 140.659h-.07-.06-.07-.07l-.06.01h-.07l-.06.01h-.07l-.07.01h-.06l-.07.01-.07.01-.06.01-.07.01-.07.01-.07.01-.06.02-.07.01-.07.01-.07.02-.07.01-.07.02-.07.02-.07.02-.07.01-.07.02-.08.02-.07.03-.07.02-.08.02-.07.03-.08.02"/><path id="F" d="M222.86 140.659h-.07-.06-.07-.07l-.06.01h-.07l-.06.01h-.07l-.07.01h-.06l-.07.01-.07.01-.06.01-.07.01-.07.01-.06.01-.07.02-.07.01-.07.01-.07.02-.07.01-.07.02-.07.02-.07.02-.07.01-.07.02-.08.02-.07.03-.07.02-.08.02-.07.03-.08.02"/><path id="G" d="M220.65 141.049v-.02-.03-.02-.02-.03-.02-.02-.01-.02-.02-.02-.01-.02-.01-.01-.02-.01-.01-.01-.01-.01-.01h0v-.01h0v-.01h0v-.01h0 0"/></defs></svg>