<?xml version="1.0" encoding="UTF-8" standalone="no"?>
<svg
   xmlns:dc="http://purl.org/dc/elements/1.1/"
   xmlns:cc="http://creativecommons.org/ns#"
   xmlns:rdf="http://www.w3.org/1999/02/22-rdf-syntax-ns#"
   xmlns:svg="http://www.w3.org/2000/svg"
   xmlns="http://www.w3.org/2000/svg"
   xmlns:sodipodi="http://sodipodi.sourceforge.net/DTD/sodipodi-0.dtd"
   xmlns:inkscape="http://www.inkscape.org/namespaces/inkscape"
   width="458"
   height="485.35522"
   viewBox="0 0 458 485.35522"
   version="1.1"
   id="svg790"
   sodipodi:docname="diagonal_overslung_corner.svg"
   inkscape:version="1.0.1 (3bc2e813f5, 2020-09-07)">
  <metadata
     id="metadata796">
    <rdf:RDF>
      <cc:Work
         rdf:about="">
        <dc:format>image/svg+xml</dc:format>
        <dc:type
           rdf:resource="http://purl.org/dc/dcmitype/StillImage" />
        <dc:title>Produce by Acme CAD Converter</dc:title>
      </cc:Work>
    </rdf:RDF>
  </metadata>
  <defs
     id="defs794" />
  <sodipodi:namedview
     pagecolor="#ffffff"
     bordercolor="#666666"
     borderopacity="1"
     objecttolerance="10"
     gridtolerance="10"
     guidetolerance="10"
     inkscape:pageopacity="0"
     inkscape:pageshadow="2"
     inkscape:window-width="1858"
     inkscape:window-height="1057"
     id="namedview792"
     showgrid="false"
     fit-margin-top="15"
     lock-margins="true"
     fit-margin-left="15"
     fit-margin-right="15"
     fit-margin-bottom="15"
     inkscape:zoom="1.3025"
     inkscape:cx="229.33"
     inkscape:cy="241.92524"
     inkscape:window-x="-8"
     inkscape:window-y="-8"
     inkscape:window-maximized="1"
     inkscape:current-layer="svg790" />
  <title
     id="title2">Produce by Acme CAD Converter</title>
  <desc
     id="desc4">Produce by Acme CAD Converter</desc>
  <polyline
     points="497.08,102.5 482.07,102.5"
     style="fill:none;stroke:#000000;stroke-width:0.5"
     id="polyline6"
     transform="translate(-170.67,-58.074765)" />
  <polyline
     points="493.66,105.92 479.46,105.92"
     style="fill:none;stroke:#000000;stroke-width:0.5"
     id="polyline8"
     transform="translate(-170.67,-58.074765)" />
  <polyline
     points="493.66,198.23 493.66,138.98"
     style="fill:none;stroke:#000000;stroke-width:0.5"
     id="polyline10"
     transform="translate(-170.67,-58.074765)" />
  <polyline
     points="493.66,135.56 493.66,105.92"
     style="fill:none;stroke:#000000;stroke-width:0.5"
     id="polyline12"
     transform="translate(-170.67,-58.074765)" />
  <polyline
     points="493.66,135.56 466.67,135.56"
     style="fill:none;stroke:#000000;stroke-width:0.5"
     id="polyline14"
     transform="translate(-170.67,-58.074765)" />
  <polyline
     points="493.66,138.98 465.6,138.98"
     style="fill:none;stroke:#000000;stroke-width:0.5"
     id="polyline16"
     transform="translate(-170.67,-58.074765)" />
  <polyline
     points="369.44,417.06 369.44,198.23"
     style="fill:none;stroke:#000000;stroke-width:0.5"
     id="polyline18"
     transform="translate(-170.67,-58.074765)" />
  <polyline
     points="368.3,415.92 368.3,224.45"
     style="fill:none;stroke:#000000;stroke-width:0.5"
     id="polyline20"
     transform="translate(-170.67,-58.074765)" />
  <polyline
     points="365.45,224.45 365.45,415.92"
     style="fill:none;stroke:#000000;stroke-width:0.5"
     id="polyline22"
     transform="translate(-170.67,-58.074765)" />
  <polyline
     points="365.45,415.92 368.3,415.92"
     style="fill:none;stroke:#000000;stroke-width:0.5"
     id="polyline24"
     transform="translate(-170.67,-58.074765)" />
  <polyline
     points="368.3,224.45 365.45,224.45"
     style="fill:none;stroke:#000000;stroke-width:0.5"
     id="polyline26"
     transform="translate(-170.67,-58.074765)" />
  <polyline
     points="360.32,417.06 416.17,417.06"
     style="fill:none;stroke:#000000;stroke-width:0.5"
     id="polyline28"
     transform="translate(-170.67,-58.074765)" />
  <polyline
     points="432.12,417.06 497.08,417.06"
     style="fill:none;stroke:#000000;stroke-width:0.5"
     id="polyline30"
     transform="translate(-170.67,-58.074765)" />
  <polyline
     points="360.61,429.03 416.17,429.03"
     style="fill:none;stroke:#000000;stroke-width:0.5"
     id="polyline32"
     transform="translate(-170.67,-58.074765)" />
  <polyline
     points="432.12,429.03 497.08,429.03"
     style="fill:none;stroke:#000000;stroke-width:0.5"
     id="polyline34"
     transform="translate(-170.67,-58.074765)" />
  <polyline
     points="416.17,447.26 416.17,117.32"
     style="fill:none;stroke:#000000;stroke-width:0.5"
     id="polyline36"
     transform="translate(-170.67,-58.074765)" />
  <polyline
     points="432.12,117.32 432.12,447.26"
     style="fill:none;stroke:#000000;stroke-width:0.5"
     id="polyline38"
     transform="translate(-170.67,-58.074765)" />
  <polyline
     points="417.02,447.26 417.02,117.32"
     style="fill:none;stroke:#000000;stroke-width:0.5"
     id="polyline40"
     transform="translate(-170.67,-58.074765)" />
  <polyline
     points="431.27,117.32 431.27,447.26"
     style="fill:none;stroke:#000000;stroke-width:0.5"
     id="polyline42"
     transform="translate(-170.67,-58.074765)" />
  <polyline
     points="410.82,447.26 437.46,447.26"
     style="fill:none;stroke:#000000;stroke-width:0.5"
     id="polyline44"
     transform="translate(-170.67,-58.074765)" />
  <polyline
     points="410.82,449.54 437.46,449.54"
     style="fill:none;stroke:#000000;stroke-width:0.5"
     id="polyline46"
     transform="translate(-170.67,-58.074765)" />
  <polyline
     points="410.82,447.26 410.82,449.54"
     style="fill:none;stroke:#000000;stroke-width:0.5"
     id="polyline48"
     transform="translate(-170.67,-58.074765)" />
  <polyline
     points="437.46,447.26 437.46,449.54"
     style="fill:none;stroke:#000000;stroke-width:0.5"
     id="polyline50"
     transform="translate(-170.67,-58.074765)" />
  <polyline
     points="432.12,447.25 432.12,447.26"
     style="fill:none;stroke:#000000;stroke-width:0.5"
     id="polyline52"
     transform="translate(-170.67,-58.074765)" />
  <polyline
     points="432.12,447.25 432.13,447.25"
     style="fill:none;stroke:#000000;stroke-width:0.5"
     id="polyline54"
     transform="translate(-170.67,-58.074765)" />
  <polyline
     points="432.12,447.26 432.13,447.26"
     style="fill:none;stroke:#000000;stroke-width:0.5"
     id="polyline56"
     transform="translate(-170.67,-58.074765)" />
  <polyline
     points="432.12,447.26 432.13,447.26"
     style="fill:none;stroke:#000000;stroke-width:0.5"
     id="polyline58"
     transform="translate(-170.67,-58.074765)" />
  <polyline
     points="432.13,447.25 432.13,447.25 432.13,447.25 432.13,447.25 432.13,447.25 432.13,447.25 432.13,447.25 432.13,447.26 432.13,447.26 432.13,447.26 432.13,447.26 432.13,447.26 432.13,447.26 432.13,447.26 432.13,447.26 432.13,447.26 432.13,447.26 432.13,447.26 432.13,447.26 432.13,447.26"
     style="fill:none;stroke:#000000;stroke-width:0.5"
     id="polyline60"
     transform="translate(-170.67,-58.074765)" />
  <polyline
     points="432.14,447.25 432.14,447.26"
     style="fill:none;stroke:#000000;stroke-width:0.5"
     id="polyline62"
     transform="translate(-170.67,-58.074765)" />
  <polyline
     points="432.14,447.25 432.14,447.25"
     style="fill:none;stroke:#000000;stroke-width:0.5"
     id="polyline64"
     transform="translate(-170.67,-58.074765)" />
  <polyline
     points="432.15,447.25 432.15,447.25 432.15,447.25 432.15,447.25 432.14,447.25 432.14,447.25 432.14,447.25 432.14,447.25 432.14,447.26 432.14,447.26 432.14,447.26 432.14,447.26 432.14,447.26 432.14,447.26 432.15,447.26 432.15,447.26 432.15,447.26 432.15,447.26"
     style="fill:none;stroke:#000000;stroke-width:0.5"
     id="polyline66"
     transform="translate(-170.67,-58.074765)" />
  <polyline
     points="432.15,447.25 432.15,447.25 432.15,447.25 432.15,447.25 432.15,447.26 432.15,447.26 432.15,447.26 432.15,447.26 432.15,447.26 432.15,447.26 432.15,447.26 432.15,447.26 432.16,447.26 432.16,447.26 432.16,447.26 432.16,447.26 432.16,447.25 432.16,447.25 432.15,447.25 432.15,447.25 432.15,447.25"
     style="fill:none;stroke:#000000;stroke-width:0.5"
     id="polyline68"
     transform="translate(-170.67,-58.074765)" />
  <polyline
     points="432.16,447.25 432.16,447.26"
     style="fill:none;stroke:#000000;stroke-width:0.5"
     id="polyline70"
     transform="translate(-170.67,-58.074765)" />
  <polyline
     points="432.16,447.25 432.16,447.25 432.16,447.25 432.16,447.25 432.16,447.25 432.16,447.26 432.16,447.26 432.16,447.26 432.16,447.26 432.16,447.26 432.16,447.26 432.16,447.26"
     style="fill:none;stroke:#000000;stroke-width:0.5"
     id="polyline72"
     transform="translate(-170.67,-58.074765)" />
  <polyline
     points="432.17,447.25 432.17,447.26"
     style="fill:none;stroke:#000000;stroke-width:0.5"
     id="polyline74"
     transform="translate(-170.67,-58.074765)" />
  <polyline
     points="432.17,447.25 432.17,447.25"
     style="fill:none;stroke:#000000;stroke-width:0.5"
     id="polyline76"
     transform="translate(-170.67,-58.074765)" />
  <polyline
     points="432.17,447.26 432.17,447.26"
     style="fill:none;stroke:#000000;stroke-width:0.5"
     id="polyline78"
     transform="translate(-170.67,-58.074765)" />
  <polyline
     points="432.17,447.26 432.17,447.26"
     style="fill:none;stroke:#000000;stroke-width:0.5"
     id="polyline80"
     transform="translate(-170.67,-58.074765)" />
  <polyline
     points="432.81,445.03 432.81,431.26"
     style="fill:none;stroke:#000000;stroke-width:0.5"
     id="polyline82"
     transform="translate(-170.67,-58.074765)" />
  <polyline
     points="432.12,447.26 432.12,429.03"
     style="fill:none;stroke:#000000;stroke-width:0.5"
     id="polyline84"
     transform="translate(-170.67,-58.074765)" />
  <polyline
     points="437.24,446.71 433.77,446.15"
     style="fill:none;stroke:#000000;stroke-width:0.5"
     id="polyline86"
     transform="translate(-170.67,-58.074765)" />
  <polyline
     points="432.12,447.26 437.46,447.26"
     style="fill:none;stroke:#000000;stroke-width:0.5"
     id="polyline88"
     transform="translate(-170.67,-58.074765)" />
  <polyline
     points="432.81,445.03 432.94,445.55 433.28,445.95 433.77,446.15"
     style="fill:none;stroke:#000000;stroke-width:0.5"
     id="polyline90"
     transform="translate(-170.67,-58.074765)" />
  <polyline
     points="437.46,446.97 437.4,446.8 437.24,446.71"
     style="fill:none;stroke:#000000;stroke-width:0.5"
     id="polyline92"
     transform="translate(-170.67,-58.074765)" />
  <polyline
     points="437.46,447.26 437.46,446.97"
     style="fill:none;stroke:#000000;stroke-width:0.5"
     id="polyline94"
     transform="translate(-170.67,-58.074765)" />
  <polyline
     points="437.24,429.58 433.77,430.13"
     style="fill:none;stroke:#000000;stroke-width:0.5"
     id="polyline96"
     transform="translate(-170.67,-58.074765)" />
  <polyline
     points="433.77,430.13 433.28,430.34 432.94,430.74 432.81,431.26"
     style="fill:none;stroke:#000000;stroke-width:0.5"
     id="polyline98"
     transform="translate(-170.67,-58.074765)" />
  <polyline
     points="432.12,429.03 437.46,429.03"
     style="fill:none;stroke:#000000;stroke-width:0.5"
     id="polyline100"
     transform="translate(-170.67,-58.074765)" />
  <polyline
     points="437.24,429.58 437.4,429.49 437.46,429.32"
     style="fill:none;stroke:#000000;stroke-width:0.5"
     id="polyline102"
     transform="translate(-170.67,-58.074765)" />
  <polyline
     points="437.46,429.03 437.46,429.32"
     style="fill:none;stroke:#000000;stroke-width:0.5"
     id="polyline104"
     transform="translate(-170.67,-58.074765)" />
  <polyline
     points="416.17,447.25 416.17,447.26"
     style="fill:none;stroke:#000000;stroke-width:0.5"
     id="polyline106"
     transform="translate(-170.67,-58.074765)" />
  <polyline
     points="416.17,447.25 416.17,447.25"
     style="fill:none;stroke:#000000;stroke-width:0.5"
     id="polyline108"
     transform="translate(-170.67,-58.074765)" />
  <polyline
     points="416.17,447.26 416.17,447.26"
     style="fill:none;stroke:#000000;stroke-width:0.5"
     id="polyline110"
     transform="translate(-170.67,-58.074765)" />
  <polyline
     points="416.17,447.26 416.17,447.26"
     style="fill:none;stroke:#000000;stroke-width:0.5"
     id="polyline112"
     transform="translate(-170.67,-58.074765)" />
  <polyline
     points="416.18,447.25 416.18,447.25 416.18,447.25 416.18,447.25 416.17,447.25 416.17,447.25 416.17,447.25 416.17,447.26 416.17,447.26 416.18,447.26 416.18,447.26 416.18,447.26 416.18,447.26 416.18,447.26 416.18,447.26 416.18,447.26 416.18,447.26 416.18,447.26 416.17,447.26 416.17,447.26"
     style="fill:none;stroke:#000000;stroke-width:0.5"
     id="polyline114"
     transform="translate(-170.67,-58.074765)" />
  <polyline
     points="416.18,447.25 416.18,447.26"
     style="fill:none;stroke:#000000;stroke-width:0.5"
     id="polyline116"
     transform="translate(-170.67,-58.074765)" />
  <polyline
     points="416.18,447.25 416.19,447.25"
     style="fill:none;stroke:#000000;stroke-width:0.5"
     id="polyline118"
     transform="translate(-170.67,-58.074765)" />
  <polyline
     points="416.19,447.25 416.19,447.25 416.19,447.25 416.19,447.25 416.19,447.25 416.19,447.25 416.19,447.25 416.19,447.25 416.19,447.26 416.19,447.26 416.19,447.26 416.19,447.26 416.19,447.26 416.19,447.26 416.19,447.26 416.19,447.26 416.19,447.26 416.19,447.26"
     style="fill:none;stroke:#000000;stroke-width:0.5"
     id="polyline120"
     transform="translate(-170.67,-58.074765)" />
  <polyline
     points="416.2,447.25 416.2,447.25 416.2,447.25 416.2,447.25 416.19,447.26 416.19,447.26 416.2,447.26 416.2,447.26 416.2,447.26 416.2,447.26 416.2,447.26 416.2,447.26 416.2,447.26 416.2,447.26 416.2,447.26 416.2,447.26 416.2,447.25 416.2,447.25 416.2,447.25 416.2,447.25 416.2,447.25"
     style="fill:none;stroke:#000000;stroke-width:0.5"
     id="polyline122"
     transform="translate(-170.67,-58.074765)" />
  <polyline
     points="416.2,447.25 416.2,447.26"
     style="fill:none;stroke:#000000;stroke-width:0.5"
     id="polyline124"
     transform="translate(-170.67,-58.074765)" />
  <polyline
     points="416.2,447.25 416.21,447.25 416.21,447.25 416.21,447.25 416.21,447.25 416.21,447.26 416.21,447.26 416.21,447.26 416.21,447.26 416.21,447.26 416.21,447.26 416.2,447.26"
     style="fill:none;stroke:#000000;stroke-width:0.5"
     id="polyline126"
     transform="translate(-170.67,-58.074765)" />
  <polyline
     points="416.21,447.25 416.21,447.26"
     style="fill:none;stroke:#000000;stroke-width:0.5"
     id="polyline128"
     transform="translate(-170.67,-58.074765)" />
  <polyline
     points="416.21,447.25 416.22,447.25"
     style="fill:none;stroke:#000000;stroke-width:0.5"
     id="polyline130"
     transform="translate(-170.67,-58.074765)" />
  <polyline
     points="416.21,447.26 416.21,447.26"
     style="fill:none;stroke:#000000;stroke-width:0.5"
     id="polyline132"
     transform="translate(-170.67,-58.074765)" />
  <polyline
     points="416.21,447.26 416.22,447.26"
     style="fill:none;stroke:#000000;stroke-width:0.5"
     id="polyline134"
     transform="translate(-170.67,-58.074765)" />
  <polyline
     points="415.47,445.03 415.47,431.26"
     style="fill:none;stroke:#000000;stroke-width:0.5"
     id="polyline136"
     transform="translate(-170.67,-58.074765)" />
  <polyline
     points="416.17,447.26 416.17,429.03"
     style="fill:none;stroke:#000000;stroke-width:0.5"
     id="polyline138"
     transform="translate(-170.67,-58.074765)" />
  <polyline
     points="411.04,446.71 414.52,446.15"
     style="fill:none;stroke:#000000;stroke-width:0.5"
     id="polyline140"
     transform="translate(-170.67,-58.074765)" />
  <polyline
     points="416.17,447.26 410.82,447.26"
     style="fill:none;stroke:#000000;stroke-width:0.5"
     id="polyline142"
     transform="translate(-170.67,-58.074765)" />
  <polyline
     points="414.52,446.15 415.01,445.95 415.35,445.55 415.47,445.03"
     style="fill:none;stroke:#000000;stroke-width:0.5"
     id="polyline144"
     transform="translate(-170.67,-58.074765)" />
  <polyline
     points="411.04,446.71 410.89,446.8 410.82,446.97"
     style="fill:none;stroke:#000000;stroke-width:0.5"
     id="polyline146"
     transform="translate(-170.67,-58.074765)" />
  <polyline
     points="410.82,447.26 410.82,446.97"
     style="fill:none;stroke:#000000;stroke-width:0.5"
     id="polyline148"
     transform="translate(-170.67,-58.074765)" />
  <polyline
     points="411.04,429.58 414.52,430.13"
     style="fill:none;stroke:#000000;stroke-width:0.5"
     id="polyline150"
     transform="translate(-170.67,-58.074765)" />
  <polyline
     points="415.47,431.26 415.35,430.74 415.01,430.34 414.52,430.13"
     style="fill:none;stroke:#000000;stroke-width:0.5"
     id="polyline152"
     transform="translate(-170.67,-58.074765)" />
  <polyline
     points="416.17,429.03 410.82,429.03"
     style="fill:none;stroke:#000000;stroke-width:0.5"
     id="polyline154"
     transform="translate(-170.67,-58.074765)" />
  <polyline
     points="410.82,429.32 410.89,429.49 411.04,429.58"
     style="fill:none;stroke:#000000;stroke-width:0.5"
     id="polyline156"
     transform="translate(-170.67,-58.074765)" />
  <polyline
     points="410.82,429.03 410.82,429.32"
     style="fill:none;stroke:#000000;stroke-width:0.5"
     id="polyline158"
     transform="translate(-170.67,-58.074765)" />
  <polyline
     points="497.08,429.03 497.08,102.5"
     style="fill:none;stroke:#000000;stroke-width:0.5"
     id="polyline160"
     transform="translate(-170.67,-58.074765)" />
  <polyline
     points="360.61,429.03 360.61,417.06"
     style="fill:none;stroke:#000000;stroke-width:0.5"
     id="polyline162"
     transform="translate(-170.67,-58.074765)" />
  <polyline
     points="432.69,135.55 432.69,135.56"
     style="fill:none;stroke:#000000;stroke-width:0.5"
     id="polyline164"
     transform="translate(-170.67,-58.074765)" />
  <polyline
     points="432.69,135.55 432.7,135.55"
     style="fill:none;stroke:#000000;stroke-width:0.5"
     id="polyline166"
     transform="translate(-170.67,-58.074765)" />
  <polyline
     points="432.69,135.55 432.7,135.55"
     style="fill:none;stroke:#000000;stroke-width:0.5"
     id="polyline168"
     transform="translate(-170.67,-58.074765)" />
  <polyline
     points="432.69,135.56 432.7,135.56"
     style="fill:none;stroke:#000000;stroke-width:0.5"
     id="polyline170"
     transform="translate(-170.67,-58.074765)" />
  <polyline
     points="432.7,135.55 432.7,135.55 432.7,135.55 432.7,135.55 432.7,135.55 432.7,135.55 432.7,135.55 432.7,135.55 432.7,135.55 432.7,135.55 432.7,135.55 432.7,135.55 432.7,135.55 432.7,135.56 432.7,135.56 432.7,135.56 432.7,135.56 432.7,135.56 432.7,135.56 432.7,135.56"
     style="fill:none;stroke:#000000;stroke-width:0.5"
     id="polyline172"
     transform="translate(-170.67,-58.074765)" />
  <polyline
     points="432.71,135.55 432.71,135.56"
     style="fill:none;stroke:#000000;stroke-width:0.5"
     id="polyline174"
     transform="translate(-170.67,-58.074765)" />
  <polyline
     points="432.71,135.55 432.71,135.55"
     style="fill:none;stroke:#000000;stroke-width:0.5"
     id="polyline176"
     transform="translate(-170.67,-58.074765)" />
  <polyline
     points="432.72,135.55 432.72,135.55 432.72,135.55 432.72,135.55 432.71,135.55 432.71,135.55 432.71,135.55 432.71,135.55 432.71,135.55 432.71,135.55 432.71,135.56 432.71,135.56 432.71,135.56 432.71,135.56 432.72,135.56 432.72,135.56 432.72,135.56 432.72,135.56"
     style="fill:none;stroke:#000000;stroke-width:0.5"
     id="polyline178"
     transform="translate(-170.67,-58.074765)" />
  <polyline
     points="432.72,135.55 432.72,135.55 432.72,135.55 432.72,135.55 432.72,135.55 432.72,135.55 432.72,135.56 432.72,135.56 432.72,135.56 432.72,135.56 432.72,135.56 432.72,135.56 432.73,135.56 432.73,135.56 432.73,135.55 432.73,135.55 432.73,135.55 432.73,135.55 432.72,135.55 432.72,135.55 432.72,135.55"
     style="fill:none;stroke:#000000;stroke-width:0.5"
     id="polyline180"
     transform="translate(-170.67,-58.074765)" />
  <polyline
     points="432.73,135.55 432.73,135.56"
     style="fill:none;stroke:#000000;stroke-width:0.5"
     id="polyline182"
     transform="translate(-170.67,-58.074765)" />
  <polyline
     points="432.73,135.55 432.73,135.55 432.73,135.55 432.73,135.55 432.73,135.55 432.73,135.55 432.73,135.55 432.73,135.56 432.73,135.56 432.73,135.56 432.73,135.56 432.73,135.56"
     style="fill:none;stroke:#000000;stroke-width:0.5"
     id="polyline184"
     transform="translate(-170.67,-58.074765)" />
  <polyline
     points="432.74,135.55 432.74,135.56"
     style="fill:none;stroke:#000000;stroke-width:0.5"
     id="polyline186"
     transform="translate(-170.67,-58.074765)" />
  <polyline
     points="432.74,135.55 432.74,135.55"
     style="fill:none;stroke:#000000;stroke-width:0.5"
     id="polyline188"
     transform="translate(-170.67,-58.074765)" />
  <polyline
     points="432.74,135.55 432.74,135.55"
     style="fill:none;stroke:#000000;stroke-width:0.5"
     id="polyline190"
     transform="translate(-170.67,-58.074765)" />
  <polyline
     points="432.74,135.56 432.74,135.56"
     style="fill:none;stroke:#000000;stroke-width:0.5"
     id="polyline192"
     transform="translate(-170.67,-58.074765)" />
  <polyline
     points="433.38,133.33 433.38,119.56"
     style="fill:none;stroke:#000000;stroke-width:0.5"
     id="polyline194"
     transform="translate(-170.67,-58.074765)" />
  <polyline
     points="432.69,135.56 432.69,117.32"
     style="fill:none;stroke:#000000;stroke-width:0.5"
     id="polyline196"
     transform="translate(-170.67,-58.074765)" />
  <polyline
     points="437.81,135.01 434.34,134.45"
     style="fill:none;stroke:#000000;stroke-width:0.5"
     id="polyline198"
     transform="translate(-170.67,-58.074765)" />
  <polyline
     points="432.69,135.56 438.03,135.56"
     style="fill:none;stroke:#000000;stroke-width:0.5"
     id="polyline200"
     transform="translate(-170.67,-58.074765)" />
  <polyline
     points="433.38,133.33 433.51,133.84 433.85,134.25 434.34,134.45"
     style="fill:none;stroke:#000000;stroke-width:0.5"
     id="polyline202"
     transform="translate(-170.67,-58.074765)" />
  <polyline
     points="438.03,135.26 437.97,135.09 437.81,135.01"
     style="fill:none;stroke:#000000;stroke-width:0.5"
     id="polyline204"
     transform="translate(-170.67,-58.074765)" />
  <polyline
     points="438.03,135.56 438.03,135.26"
     style="fill:none;stroke:#000000;stroke-width:0.5"
     id="polyline206"
     transform="translate(-170.67,-58.074765)" />
  <polyline
     points="437.81,117.87 434.34,118.43"
     style="fill:none;stroke:#000000;stroke-width:0.5"
     id="polyline208"
     transform="translate(-170.67,-58.074765)" />
  <polyline
     points="434.34,118.43 433.85,118.63 433.51,119.04 433.38,119.56"
     style="fill:none;stroke:#000000;stroke-width:0.5"
     id="polyline210"
     transform="translate(-170.67,-58.074765)" />
  <polyline
     points="432.69,117.32 438.03,117.32"
     style="fill:none;stroke:#000000;stroke-width:0.5"
     id="polyline212"
     transform="translate(-170.67,-58.074765)" />
  <polyline
     points="437.81,117.87 437.97,117.79 438.03,117.62"
     style="fill:none;stroke:#000000;stroke-width:0.5"
     id="polyline214"
     transform="translate(-170.67,-58.074765)" />
  <polyline
     points="438.03,117.32 438.03,117.62"
     style="fill:none;stroke:#000000;stroke-width:0.5"
     id="polyline216"
     transform="translate(-170.67,-58.074765)" />
  <polyline
     points="415.6,135.55 415.6,135.56"
     style="fill:none;stroke:#000000;stroke-width:0.5"
     id="polyline218"
     transform="translate(-170.67,-58.074765)" />
  <polyline
     points="415.6,135.55 415.6,135.55"
     style="fill:none;stroke:#000000;stroke-width:0.5"
     id="polyline220"
     transform="translate(-170.67,-58.074765)" />
  <polyline
     points="415.6,135.55 415.6,135.55"
     style="fill:none;stroke:#000000;stroke-width:0.5"
     id="polyline222"
     transform="translate(-170.67,-58.074765)" />
  <polyline
     points="415.6,135.56 415.6,135.56"
     style="fill:none;stroke:#000000;stroke-width:0.5"
     id="polyline224"
     transform="translate(-170.67,-58.074765)" />
  <polyline
     points="415.61,135.55 415.61,135.55 415.61,135.55 415.61,135.55 415.6,135.55 415.6,135.55 415.6,135.55 415.6,135.55 415.6,135.55 415.61,135.55 415.61,135.55 415.61,135.55 415.61,135.55 415.61,135.56 415.61,135.56 415.61,135.56 415.61,135.56 415.61,135.56 415.6,135.56 415.6,135.56"
     style="fill:none;stroke:#000000;stroke-width:0.5"
     id="polyline226"
     transform="translate(-170.67,-58.074765)" />
  <polyline
     points="415.61,135.55 415.61,135.56"
     style="fill:none;stroke:#000000;stroke-width:0.5"
     id="polyline228"
     transform="translate(-170.67,-58.074765)" />
  <polyline
     points="415.61,135.55 415.62,135.55"
     style="fill:none;stroke:#000000;stroke-width:0.5"
     id="polyline230"
     transform="translate(-170.67,-58.074765)" />
  <polyline
     points="415.62,135.55 415.62,135.55 415.62,135.55 415.62,135.55 415.62,135.55 415.62,135.55 415.62,135.55 415.62,135.55 415.62,135.55 415.62,135.55 415.62,135.56 415.62,135.56 415.62,135.56 415.62,135.56 415.62,135.56 415.62,135.56 415.62,135.56 415.62,135.56"
     style="fill:none;stroke:#000000;stroke-width:0.5"
     id="polyline232"
     transform="translate(-170.67,-58.074765)" />
  <polyline
     points="415.63,135.55 415.63,135.55 415.63,135.55 415.63,135.55 415.62,135.55 415.62,135.55 415.63,135.56 415.63,135.56 415.63,135.56 415.63,135.56 415.63,135.56 415.63,135.56 415.63,135.56 415.63,135.56 415.63,135.55 415.63,135.55 415.63,135.55 415.63,135.55 415.63,135.55 415.63,135.55 415.63,135.55"
     style="fill:none;stroke:#000000;stroke-width:0.5"
     id="polyline234"
     transform="translate(-170.67,-58.074765)" />
  <polyline
     points="415.63,135.55 415.63,135.56"
     style="fill:none;stroke:#000000;stroke-width:0.5"
     id="polyline236"
     transform="translate(-170.67,-58.074765)" />
  <polyline
     points="415.63,135.55 415.64,135.55 415.64,135.55 415.64,135.55 415.64,135.55 415.64,135.55 415.64,135.55 415.64,135.56 415.64,135.56 415.64,135.56 415.64,135.56 415.63,135.56"
     style="fill:none;stroke:#000000;stroke-width:0.5"
     id="polyline238"
     transform="translate(-170.67,-58.074765)" />
  <polyline
     points="415.64,135.55 415.64,135.56"
     style="fill:none;stroke:#000000;stroke-width:0.5"
     id="polyline240"
     transform="translate(-170.67,-58.074765)" />
  <polyline
     points="415.64,135.55 415.65,135.55"
     style="fill:none;stroke:#000000;stroke-width:0.5"
     id="polyline242"
     transform="translate(-170.67,-58.074765)" />
  <polyline
     points="415.64,135.55 415.64,135.55"
     style="fill:none;stroke:#000000;stroke-width:0.5"
     id="polyline244"
     transform="translate(-170.67,-58.074765)" />
  <polyline
     points="415.64,135.56 415.65,135.56"
     style="fill:none;stroke:#000000;stroke-width:0.5"
     id="polyline246"
     transform="translate(-170.67,-58.074765)" />
  <polyline
     points="414.9,133.33 414.9,119.56"
     style="fill:none;stroke:#000000;stroke-width:0.5"
     id="polyline248"
     transform="translate(-170.67,-58.074765)" />
  <polyline
     points="415.6,135.56 415.6,117.32"
     style="fill:none;stroke:#000000;stroke-width:0.5"
     id="polyline250"
     transform="translate(-170.67,-58.074765)" />
  <polyline
     points="410.47,135.01 413.95,134.45"
     style="fill:none;stroke:#000000;stroke-width:0.5"
     id="polyline252"
     transform="translate(-170.67,-58.074765)" />
  <polyline
     points="415.6,135.56 410.26,135.56"
     style="fill:none;stroke:#000000;stroke-width:0.5"
     id="polyline254"
     transform="translate(-170.67,-58.074765)" />
  <polyline
     points="413.95,134.45 414.44,134.25 414.78,133.84 414.9,133.33"
     style="fill:none;stroke:#000000;stroke-width:0.5"
     id="polyline256"
     transform="translate(-170.67,-58.074765)" />
  <polyline
     points="410.47,135.01 410.32,135.09 410.26,135.26"
     style="fill:none;stroke:#000000;stroke-width:0.5"
     id="polyline258"
     transform="translate(-170.67,-58.074765)" />
  <polyline
     points="410.26,135.56 410.26,135.26"
     style="fill:none;stroke:#000000;stroke-width:0.5"
     id="polyline260"
     transform="translate(-170.67,-58.074765)" />
  <polyline
     points="410.47,117.87 413.95,118.43"
     style="fill:none;stroke:#000000;stroke-width:0.5"
     id="polyline262"
     transform="translate(-170.67,-58.074765)" />
  <polyline
     points="414.9,119.56 414.78,119.04 414.44,118.63 413.95,118.43"
     style="fill:none;stroke:#000000;stroke-width:0.5"
     id="polyline264"
     transform="translate(-170.67,-58.074765)" />
  <polyline
     points="415.6,117.32 410.26,117.32"
     style="fill:none;stroke:#000000;stroke-width:0.5"
     id="polyline266"
     transform="translate(-170.67,-58.074765)" />
  <polyline
     points="410.26,117.62 410.32,117.79 410.47,117.87"
     style="fill:none;stroke:#000000;stroke-width:0.5"
     id="polyline268"
     transform="translate(-170.67,-58.074765)" />
  <polyline
     points="410.26,117.32 410.26,117.62"
     style="fill:none;stroke:#000000;stroke-width:0.5"
     id="polyline270"
     transform="translate(-170.67,-58.074765)" />
  <polyline
     points="415.6,117.32 415.6,158.35"
     style="fill:none;stroke:#000000;stroke-width:0.5"
     id="polyline272"
     transform="translate(-170.67,-58.074765)" />
  <polyline
     points="415.6,158.35 416.17,158.35"
     style="fill:none;stroke:#000000;stroke-width:0.5"
     id="polyline274"
     transform="translate(-170.67,-58.074765)" />
  <polyline
     points="432.12,158.35 432.69,158.35"
     style="fill:none;stroke:#000000;stroke-width:0.5"
     id="polyline276"
     transform="translate(-170.67,-58.074765)" />
  <polyline
     points="432.69,117.32 432.69,158.35"
     style="fill:none;stroke:#000000;stroke-width:0.5"
     id="polyline278"
     transform="translate(-170.67,-58.074765)" />
  <polyline
     points="432.69,117.32 415.6,117.32"
     style="fill:none;stroke:#000000;stroke-width:0.5"
     id="polyline280"
     transform="translate(-170.67,-58.074765)" />
  <polyline
     points="432.12,198.24 497.08,198.24"
     style="fill:none;stroke:#000000;stroke-width:0.5"
     id="polyline282"
     transform="translate(-170.67,-58.074765)" />
  <polyline
     points="369.44,198.24 416.17,198.24"
     style="fill:none;stroke:#000000;stroke-width:0.5"
     id="polyline284"
     transform="translate(-170.67,-58.074765)" />
  <polyline
     points="505.63,417.06 543.51,417.06"
     style="fill:none;stroke:#000000;stroke-width:0.5"
     id="polyline286"
     transform="translate(-170.67,-58.074765)" />
  <polyline
     points="505.63,198.24 543.51,198.24"
     style="fill:none;stroke:#000000;stroke-width:0.5"
     id="polyline288"
     transform="translate(-170.67,-58.074765)" />
  <polyline
     points="530.69,206.79 530.69,301.65"
     style="fill:none;stroke:#000000;stroke-width:0.5"
     id="polyline290"
     transform="translate(-170.67,-58.074765)" />
  <path
     d="m 358.59,148.71524 1.43,-8.55 v 0 l 1.42,8.55 z"
     fill-rule="evenodd"
     fill="#000000"
     id="path292" />
  <polyline
     points="525.88,305.69 525.52,304.98 524.81,304.27 524.1,303.91 522.67,303.91 521.96,304.27 521.25,304.98 520.89,305.69 520.54,306.76 520.54,308.54 520.89,309.61 521.25,310.32 521.96,311.03 522.67,311.39 524.1,311.39 524.81,311.03 525.52,310.32 525.88,309.61"
     style="fill:none;stroke:#000000;stroke-width:0.5"
     id="polyline294"
     transform="translate(-170.67,-58.074765)" />
  <polyline
     points="528.02,311.39 530.86,303.91 533.71,311.39"
     style="fill:none;stroke:#000000;stroke-width:0.5"
     id="polyline296"
     transform="translate(-170.67,-58.074765)" />
  <polyline
     points="529.08,308.9 532.65,308.9"
     style="fill:none;stroke:#000000;stroke-width:0.5"
     id="polyline298"
     transform="translate(-170.67,-58.074765)" />
  <polyline
     points="535.85,311.39 535.85,303.91 539.06,303.91 540.12,304.27 540.48,304.62 540.84,305.34 540.84,306.05 540.48,306.76 540.12,307.12 539.06,307.47"
     style="fill:none;stroke:#000000;stroke-width:0.5"
     id="polyline300"
     transform="translate(-170.67,-58.074765)" />
  <polyline
     points="535.85,307.47 539.06,307.47 540.12,307.83 540.48,308.18 540.84,308.9 540.84,309.97 540.48,310.68 540.12,311.03 539.06,311.39 535.85,311.39"
     style="fill:none;stroke:#000000;stroke-width:0.5"
     id="polyline302"
     transform="translate(-170.67,-58.074765)" />
  <polyline
     points="505.63,102.5 543.51,102.5"
     style="fill:none;stroke:#000000;stroke-width:0.5"
     id="polyline304"
     transform="translate(-170.67,-58.074765)" />
  <polyline
     points="530.69,189.69 530.69,156.25"
     style="fill:none;stroke:#000000;stroke-width:0.5"
     id="polyline306"
     transform="translate(-170.67,-58.074765)" />
  <polyline
     points="530.69,111.05 530.69,144.49"
     style="fill:none;stroke:#000000;stroke-width:0.5"
     id="polyline308"
     transform="translate(-170.67,-58.074765)" />
  <path
     d="m 358.59,131.61524 1.43,8.55 v 0 l 1.42,-8.55 z"
     fill-rule="evenodd"
     fill="#000000"
     id="path310" />
  <path
     d="m 358.59,52.975235 1.43,-8.55 v 0 l 1.42,8.55 z"
     fill-rule="evenodd"
     fill="#000000"
     id="path312" />
  <polyline
     points="519.47,154.11 519.47,146.63 522.67,146.63 523.74,146.99 524.1,147.34 524.45,148.06 524.45,148.77 524.1,149.48 523.74,149.84 522.67,150.19 519.47,150.19"
     style="fill:none;stroke:#000000;stroke-width:0.5"
     id="polyline314"
     transform="translate(-170.67,-58.074765)" />
  <polyline
     points="521.96,150.19 524.45,154.11"
     style="fill:none;stroke:#000000;stroke-width:0.5"
     id="polyline316"
     transform="translate(-170.67,-58.074765)" />
  <polyline
     points="526.95,154.11 529.8,146.63 532.65,154.11"
     style="fill:none;stroke:#000000;stroke-width:0.5"
     id="polyline318"
     transform="translate(-170.67,-58.074765)" />
  <polyline
     points="528.02,151.62 531.58,151.62"
     style="fill:none;stroke:#000000;stroke-width:0.5"
     id="polyline320"
     transform="translate(-170.67,-58.074765)" />
  <polyline
     points="534.78,154.11 534.78,146.63"
     style="fill:none;stroke:#000000;stroke-width:0.5"
     id="polyline322"
     transform="translate(-170.67,-58.074765)" />
  <polyline
     points="537.63,146.63 537.63,154.11 541.91,154.11"
     style="fill:none;stroke:#000000;stroke-width:0.5"
     id="polyline324"
     transform="translate(-170.67,-58.074765)" />
  <polyline
     points="263.4,408.51 263.4,288.55"
     style="fill:none;stroke:#000000;stroke-width:0.5"
     id="polyline326"
     transform="translate(-170.67,-58.074765)" />
  <polyline
     points="263.4,144.11 263.4,264.07"
     style="fill:none;stroke:#000000;stroke-width:0.5"
     id="polyline328"
     transform="translate(-170.67,-58.074765)" />
  <path
     d="m 91.3,350.43524 1.43,8.55 v 0 l 1.42,-8.55 z"
     fill-rule="evenodd"
     fill="#000000"
     id="path330" />
  <polyline
     points="230.81,266.34 230.81,271.68 231.16,272.75 231.88,273.46 232.95,273.82 233.66,273.82 234.73,273.46 235.44,272.75 235.79,271.68 235.79,266.34"
     style="fill:none;stroke:#000000;stroke-width:0.5"
     id="polyline332"
     transform="translate(-170.67,-58.074765)" />
  <polyline
     points="238.64,273.82 238.64,266.34 243.63,273.82 243.63,266.34"
     style="fill:none;stroke:#000000;stroke-width:0.5"
     id="polyline334"
     transform="translate(-170.67,-58.074765)" />
  <polyline
     points="246.48,273.82 246.48,266.34 248.97,266.34 250.04,266.69 250.75,267.41 251.11,268.12 251.46,269.19 251.46,270.97 251.11,272.04 250.75,272.75 250.04,273.46 248.97,273.82 246.48,273.82"
     style="fill:none;stroke:#000000;stroke-width:0.5"
     id="polyline336"
     transform="translate(-170.67,-58.074765)" />
  <polyline
     points="253.96,273.82 253.96,266.34 258.59,266.34"
     style="fill:none;stroke:#000000;stroke-width:0.5"
     id="polyline338"
     transform="translate(-170.67,-58.074765)" />
  <polyline
     points="253.96,269.9 256.81,269.9"
     style="fill:none;stroke:#000000;stroke-width:0.5"
     id="polyline340"
     transform="translate(-170.67,-58.074765)" />
  <polyline
     points="253.96,273.82 258.59,273.82"
     style="fill:none;stroke:#000000;stroke-width:0.5"
     id="polyline342"
     transform="translate(-170.67,-58.074765)" />
  <polyline
     points="260.72,273.82 260.72,266.34 263.93,266.34 265,266.69 265.35,267.05 265.71,267.76 265.71,268.47 265.35,269.19 265,269.54 263.93,269.9 260.72,269.9"
     style="fill:none;stroke:#000000;stroke-width:0.5"
     id="polyline344"
     transform="translate(-170.67,-58.074765)" />
  <polyline
     points="263.22,269.9 265.71,273.82"
     style="fill:none;stroke:#000000;stroke-width:0.5"
     id="polyline346"
     transform="translate(-170.67,-58.074765)" />
  <polyline
     points="268.2,273.82 268.2,266.34 271.41,266.34 272.48,266.69 272.83,267.05 273.19,267.76 273.19,268.47 272.83,269.19 272.48,269.54 271.41,269.9"
     style="fill:none;stroke:#000000;stroke-width:0.5"
     id="polyline348"
     transform="translate(-170.67,-58.074765)" />
  <polyline
     points="268.2,269.9 271.41,269.9 272.48,270.25 272.83,270.61 273.19,271.32 273.19,272.39 272.83,273.1 272.48,273.46 271.41,273.82 268.2,273.82"
     style="fill:none;stroke:#000000;stroke-width:0.5"
     id="polyline350"
     transform="translate(-170.67,-58.074765)" />
  <polyline
     points="275.68,273.82 275.68,266.34 280.31,266.34"
     style="fill:none;stroke:#000000;stroke-width:0.5"
     id="polyline352"
     transform="translate(-170.67,-58.074765)" />
  <polyline
     points="275.68,269.9 278.53,269.9"
     style="fill:none;stroke:#000000;stroke-width:0.5"
     id="polyline354"
     transform="translate(-170.67,-58.074765)" />
  <polyline
     points="275.68,273.82 280.31,273.82"
     style="fill:none;stroke:#000000;stroke-width:0.5"
     id="polyline356"
     transform="translate(-170.67,-58.074765)" />
  <polyline
     points="282.45,273.82 285.3,266.34 288.15,273.82"
     style="fill:none;stroke:#000000;stroke-width:0.5"
     id="polyline358"
     transform="translate(-170.67,-58.074765)" />
  <polyline
     points="283.52,271.32 287.08,271.32"
     style="fill:none;stroke:#000000;stroke-width:0.5"
     id="polyline360"
     transform="translate(-170.67,-58.074765)" />
  <polyline
     points="290.29,273.82 290.29,266.34 293.13,273.82 295.98,266.34 295.98,273.82"
     style="fill:none;stroke:#000000;stroke-width:0.5"
     id="polyline362"
     transform="translate(-170.67,-58.074765)" />
  <polyline
     points="244.52,286.28 244.52,278.8"
     style="fill:none;stroke:#000000;stroke-width:0.5"
     id="polyline364"
     transform="translate(-170.67,-58.074765)" />
  <polyline
     points="249.51,278.8 249.51,286.28"
     style="fill:none;stroke:#000000;stroke-width:0.5"
     id="polyline366"
     transform="translate(-170.67,-58.074765)" />
  <polyline
     points="244.52,282.36 249.51,282.36"
     style="fill:none;stroke:#000000;stroke-width:0.5"
     id="polyline368"
     transform="translate(-170.67,-58.074765)" />
  <polyline
     points="252.36,286.28 252.36,278.8 256.99,278.8"
     style="fill:none;stroke:#000000;stroke-width:0.5"
     id="polyline370"
     transform="translate(-170.67,-58.074765)" />
  <polyline
     points="252.36,282.36 255.2,282.36"
     style="fill:none;stroke:#000000;stroke-width:0.5"
     id="polyline372"
     transform="translate(-170.67,-58.074765)" />
  <polyline
     points="252.36,286.28 256.99,286.28"
     style="fill:none;stroke:#000000;stroke-width:0.5"
     id="polyline374"
     transform="translate(-170.67,-58.074765)" />
  <polyline
     points="259.12,286.28 259.12,278.8"
     style="fill:none;stroke:#000000;stroke-width:0.5"
     id="polyline376"
     transform="translate(-170.67,-58.074765)" />
  <polyline
     points="267.31,280.58 266.96,279.87 266.25,279.16 265.53,278.8 264.11,278.8 263.4,279.16 262.68,279.87 262.33,280.58 261.97,281.65 261.97,283.43 262.33,284.5 262.68,285.21 263.4,285.93 264.11,286.28 265.53,286.28 266.25,285.93 266.96,285.21 267.31,284.5 267.31,283.43 265.53,283.43"
     style="fill:none;stroke:#000000;stroke-width:0.5"
     id="polyline378"
     transform="translate(-170.67,-58.074765)" />
  <polyline
     points="269.45,286.28 269.45,278.8"
     style="fill:none;stroke:#000000;stroke-width:0.5"
     id="polyline380"
     transform="translate(-170.67,-58.074765)" />
  <polyline
     points="274.44,278.8 274.44,286.28"
     style="fill:none;stroke:#000000;stroke-width:0.5"
     id="polyline382"
     transform="translate(-170.67,-58.074765)" />
  <polyline
     points="269.45,282.36 274.44,282.36"
     style="fill:none;stroke:#000000;stroke-width:0.5"
     id="polyline384"
     transform="translate(-170.67,-58.074765)" />
  <polyline
     points="279.78,278.8 279.78,286.28"
     style="fill:none;stroke:#000000;stroke-width:0.5"
     id="polyline386"
     transform="translate(-170.67,-58.074765)" />
  <polyline
     points="277.29,278.8 282.27,278.8"
     style="fill:none;stroke:#000000;stroke-width:0.5"
     id="polyline388"
     transform="translate(-170.67,-58.074765)" />
  <polyline
     points="359.38,135.56 250.57,135.56"
     style="fill:none;stroke:#000000;stroke-width:0.5"
     id="polyline390"
     transform="translate(-170.67,-58.074765)" />
  <polyline
     points="360.89,117.32 250.57,117.32"
     style="fill:none;stroke:#000000;stroke-width:0.5"
     id="polyline392"
     transform="translate(-170.67,-58.074765)" />
  <polyline
     points="263.4,126.44 237.5,126.44"
     style="fill:none;stroke:#000000;stroke-width:0.5"
     id="polyline394"
     transform="translate(-170.67,-58.074765)" />
  <polyline
     points="203.72,116.47 203.72,123.95"
     style="fill:none;stroke:#000000;stroke-width:0.5"
     id="polyline396"
     transform="translate(-170.67,-58.074765)" />
  <polyline
     points="201.23,116.47 206.22,116.47"
     style="fill:none;stroke:#000000;stroke-width:0.5"
     id="polyline398"
     transform="translate(-170.67,-58.074765)" />
  <polyline
     points="209.78,116.47 209.07,116.82 208.35,117.54 208,118.25 207.64,119.32 207.64,121.1 208,122.17 208.35,122.88 209.07,123.59 209.78,123.95 211.2,123.95 211.91,123.59 212.63,122.88 212.98,122.17 213.34,121.1 213.34,119.32 212.98,118.25 212.63,117.54 211.91,116.82 211.2,116.47 209.78,116.47"
     style="fill:none;stroke:#000000;stroke-width:0.5"
     id="polyline400"
     transform="translate(-170.67,-58.074765)" />
  <polyline
     points="215.48,123.95 215.48,116.47 218.68,116.47 219.75,116.82 220.11,117.18 220.46,117.89 220.46,118.96 220.11,119.67 219.75,120.03 218.68,120.39 215.48,120.39"
     style="fill:none;stroke:#000000;stroke-width:0.5"
     id="polyline402"
     transform="translate(-170.67,-58.074765)" />
  <polyline
     points="191.26,130.71 190.9,130 190.19,129.29 189.48,128.93 188.05,128.93 187.34,129.29 186.63,130 186.27,130.71 185.92,131.78 185.92,133.56 186.27,134.63 186.63,135.34 187.34,136.06 188.05,136.41 189.48,136.41 190.19,136.06 190.9,135.34 191.26,134.63"
     style="fill:none;stroke:#000000;stroke-width:0.5"
     id="polyline404"
     transform="translate(-170.67,-58.074765)" />
  <polyline
     points="193.39,136.41 193.39,128.93"
     style="fill:none;stroke:#000000;stroke-width:0.5"
     id="polyline406"
     transform="translate(-170.67,-58.074765)" />
  <polyline
     points="198.38,128.93 198.38,136.41"
     style="fill:none;stroke:#000000;stroke-width:0.5"
     id="polyline408"
     transform="translate(-170.67,-58.074765)" />
  <polyline
     points="193.39,132.5 198.38,132.5"
     style="fill:none;stroke:#000000;stroke-width:0.5"
     id="polyline410"
     transform="translate(-170.67,-58.074765)" />
  <polyline
     points="201.23,136.41 204.08,128.93 206.93,136.41"
     style="fill:none;stroke:#000000;stroke-width:0.5"
     id="polyline412"
     transform="translate(-170.67,-58.074765)" />
  <polyline
     points="202.3,133.92 205.86,133.92"
     style="fill:none;stroke:#000000;stroke-width:0.5"
     id="polyline414"
     transform="translate(-170.67,-58.074765)" />
  <polyline
     points="209.07,136.41 209.07,128.93 214.05,136.41 214.05,128.93"
     style="fill:none;stroke:#000000;stroke-width:0.5"
     id="polyline416"
     transform="translate(-170.67,-58.074765)" />
  <polyline
     points="216.9,136.41 216.9,128.93 221.89,136.41 221.89,128.93"
     style="fill:none;stroke:#000000;stroke-width:0.5"
     id="polyline418"
     transform="translate(-170.67,-58.074765)" />
  <polyline
     points="224.74,136.41 224.74,128.93 229.37,128.93"
     style="fill:none;stroke:#000000;stroke-width:0.5"
     id="polyline420"
     transform="translate(-170.67,-58.074765)" />
  <polyline
     points="224.74,132.5 227.59,132.5"
     style="fill:none;stroke:#000000;stroke-width:0.5"
     id="polyline422"
     transform="translate(-170.67,-58.074765)" />
  <polyline
     points="224.74,136.41 229.37,136.41"
     style="fill:none;stroke:#000000;stroke-width:0.5"
     id="polyline424"
     transform="translate(-170.67,-58.074765)" />
  <polyline
     points="231.5,128.93 231.5,136.41 235.78,136.41"
     style="fill:none;stroke:#000000;stroke-width:0.5"
     id="polyline426"
     transform="translate(-170.67,-58.074765)" />
  <polyline
     points="263.4,135.56 263.4,117.32"
     style="fill:none;stroke:#000000;stroke-width:0.5"
     id="polyline428"
     transform="translate(-170.67,-58.074765)" />
  <path
     d="m 91.3,86.035235 1.43,-8.55 v 0 l 1.42,8.55 z"
     fill-rule="evenodd"
     fill="#000000"
     id="path430" />
  <polyline
     points="352.5,528.18 250.57,528.18"
     style="fill:none;stroke:#000000;stroke-width:0.5"
     id="polyline432"
     transform="translate(-170.67,-58.074765)" />
  <polyline
     points="351.77,417.06 250.57,417.06"
     style="fill:none;stroke:#000000;stroke-width:0.5"
     id="polyline434"
     transform="translate(-170.67,-58.074765)" />
  <polyline
     points="263.4,519.63 263.4,484.92"
     style="fill:none;stroke:#000000;stroke-width:0.5"
     id="polyline436"
     transform="translate(-170.67,-58.074765)" />
  <polyline
     points="263.4,425.61 263.4,460.32"
     style="fill:none;stroke:#000000;stroke-width:0.5"
     id="polyline438"
     transform="translate(-170.67,-58.074765)" />
  <path
     d="m 91.3,461.55524 1.43,8.55 v 0 l 1.42,-8.55 z"
     fill-rule="evenodd"
     fill="#000000"
     id="path440" />
  <path
     d="m 91.3,367.53524 1.43,-8.55 v 0 l 1.42,8.55 z"
     fill-rule="evenodd"
     fill="#000000"
     id="path442" />
  <polyline
     points="256.45,462.65 256.45,470.13"
     style="fill:none;stroke:#000000;stroke-width:0.5"
     id="polyline444"
     transform="translate(-170.67,-58.074765)" />
  <polyline
     points="253.96,462.65 258.94,462.65"
     style="fill:none;stroke:#000000;stroke-width:0.5"
     id="polyline446"
     transform="translate(-170.67,-58.074765)" />
  <polyline
     points="262.51,462.65 261.79,463 261.08,463.72 260.72,464.43 260.37,465.5 260.37,467.28 260.72,468.35 261.08,469.06 261.79,469.77 262.51,470.13 263.93,470.13 264.64,469.77 265.35,469.06 265.71,468.35 266.07,467.28 266.07,465.5 265.71,464.43 265.35,463.72 264.64,463 263.93,462.65 262.51,462.65"
     style="fill:none;stroke:#000000;stroke-width:0.5"
     id="polyline448"
     transform="translate(-170.67,-58.074765)" />
  <polyline
     points="268.2,470.13 268.2,462.65 272.83,462.65"
     style="fill:none;stroke:#000000;stroke-width:0.5"
     id="polyline450"
     transform="translate(-170.67,-58.074765)" />
  <polyline
     points="268.2,466.21 271.05,466.21"
     style="fill:none;stroke:#000000;stroke-width:0.5"
     id="polyline452"
     transform="translate(-170.67,-58.074765)" />
  <polyline
     points="268.2,470.13 272.83,470.13"
     style="fill:none;stroke:#000000;stroke-width:0.5"
     id="polyline454"
     transform="translate(-170.67,-58.074765)" />
  <polyline
     points="250.93,476.89 250.57,476.18 249.86,475.47 249.15,475.11 247.73,475.11 247.01,475.47 246.3,476.18 245.94,476.89 245.59,477.96 245.59,479.74 245.94,480.81 246.3,481.52 247.01,482.24 247.73,482.59 249.15,482.59 249.86,482.24 250.57,481.52 250.93,480.81 250.93,479.74 249.15,479.74"
     style="fill:none;stroke:#000000;stroke-width:0.5"
     id="polyline456"
     transform="translate(-170.67,-58.074765)" />
  <polyline
     points="253.07,475.11 253.07,480.46 253.42,481.52 254.14,482.24 255.2,482.59 255.92,482.59 256.99,482.24 257.7,481.52 258.05,480.46 258.05,475.11"
     style="fill:none;stroke:#000000;stroke-width:0.5"
     id="polyline458"
     transform="translate(-170.67,-58.074765)" />
  <polyline
     points="260.9,482.59 263.75,475.11 266.6,482.59"
     style="fill:none;stroke:#000000;stroke-width:0.5"
     id="polyline460"
     transform="translate(-170.67,-58.074765)" />
  <polyline
     points="261.97,480.1 265.53,480.1"
     style="fill:none;stroke:#000000;stroke-width:0.5"
     id="polyline462"
     transform="translate(-170.67,-58.074765)" />
  <polyline
     points="268.74,482.59 268.74,475.11 271.94,475.11 273.01,475.47 273.37,475.83 273.72,476.54 273.72,477.25 273.37,477.96 273.01,478.32 271.94,478.67 268.74,478.67"
     style="fill:none;stroke:#000000;stroke-width:0.5"
     id="polyline464"
     transform="translate(-170.67,-58.074765)" />
  <polyline
     points="271.23,478.67 273.72,482.59"
     style="fill:none;stroke:#000000;stroke-width:0.5"
     id="polyline466"
     transform="translate(-170.67,-58.074765)" />
  <polyline
     points="276.22,482.59 276.22,475.11 278.71,475.11 279.78,475.47 280.49,476.18 280.85,476.89 281.2,477.96 281.2,479.74 280.85,480.81 280.49,481.52 279.78,482.24 278.71,482.59 276.22,482.59"
     style="fill:none;stroke:#000000;stroke-width:0.5"
     id="polyline468"
     transform="translate(-170.67,-58.074765)" />
  <polyline
     points="530.69,423.04 551.77,419.17"
     style="fill:none;stroke:#000000;stroke-width:0.5"
     id="polyline470"
     transform="translate(-170.67,-58.074765)" />
  <polyline
     points="551.77,419.17 556.04,419.17"
     style="fill:none;stroke:#000000;stroke-width:0.5"
     id="polyline472"
     transform="translate(-170.67,-58.074765)" />
  <polyline
     points="558.22,422.91 558.22,415.43 561.43,415.43 562.49,415.79 562.85,416.15 563.21,416.86 563.21,417.93 562.85,418.64 562.49,419 561.43,419.35 558.22,419.35"
     style="fill:none;stroke:#000000;stroke-width:0.5"
     id="polyline474"
     transform="translate(-170.67,-58.074765)" />
  <polyline
     points="565.7,415.43 565.7,422.91 569.97,422.91"
     style="fill:none;stroke:#000000;stroke-width:0.5"
     id="polyline476"
     transform="translate(-170.67,-58.074765)" />
  <polyline
     points="571.75,422.91 574.6,415.43 577.45,422.91"
     style="fill:none;stroke:#000000;stroke-width:0.5"
     id="polyline478"
     transform="translate(-170.67,-58.074765)" />
  <polyline
     points="572.82,420.42 576.38,420.42"
     style="fill:none;stroke:#000000;stroke-width:0.5"
     id="polyline480"
     transform="translate(-170.67,-58.074765)" />
  <polyline
     points="582.08,415.43 582.08,422.91"
     style="fill:none;stroke:#000000;stroke-width:0.5"
     id="polyline482"
     transform="translate(-170.67,-58.074765)" />
  <polyline
     points="579.59,415.43 584.58,415.43"
     style="fill:none;stroke:#000000;stroke-width:0.5"
     id="polyline484"
     transform="translate(-170.67,-58.074765)" />
  <polyline
     points="586,422.91 586,415.43 590.63,415.43"
     style="fill:none;stroke:#000000;stroke-width:0.5"
     id="polyline486"
     transform="translate(-170.67,-58.074765)" />
  <polyline
     points="586,419 588.85,419"
     style="fill:none;stroke:#000000;stroke-width:0.5"
     id="polyline488"
     transform="translate(-170.67,-58.074765)" />
  <polyline
     points="594.55,415.43 593.84,415.79 593.12,416.5 592.77,417.22 592.41,418.28 592.41,420.06 592.77,421.13 593.12,421.85 593.84,422.56 594.55,422.91 595.97,422.91 596.69,422.56 597.4,421.85 597.75,421.13 598.11,420.06 598.11,418.28 597.75,417.22 597.4,416.5 596.69,415.79 595.97,415.43 594.55,415.43"
     style="fill:none;stroke:#000000;stroke-width:0.5"
     id="polyline490"
     transform="translate(-170.67,-58.074765)" />
  <polyline
     points="600.25,422.91 600.25,415.43 603.45,415.43 604.52,415.79 604.88,416.15 605.23,416.86 605.23,417.57 604.88,418.28 604.52,418.64 603.45,419 600.25,419"
     style="fill:none;stroke:#000000;stroke-width:0.5"
     id="polyline492"
     transform="translate(-170.67,-58.074765)" />
  <polyline
     points="602.74,419 605.23,422.91"
     style="fill:none;stroke:#000000;stroke-width:0.5"
     id="polyline494"
     transform="translate(-170.67,-58.074765)" />
  <polyline
     points="607.73,422.91 607.73,415.43 610.58,422.91 613.42,415.43 613.42,422.91"
     style="fill:none;stroke:#000000;stroke-width:0.5"
     id="polyline496"
     transform="translate(-170.67,-58.074765)" />
  <path
     d="m 358.59,350.43524 1.43,8.55 v 0 l 1.42,-8.55 z"
     fill-rule="evenodd"
     fill="#000000"
     id="path498" />
  <polyline
     points="360.32,417.06 360.32,527.04"
     style="fill:none;stroke:#000000;stroke-width:0.5"
     id="polyline500"
     transform="translate(-170.67,-58.074765)" />
  <polyline
     points="360.46,417.06 360.46,526.99"
     style="fill:none;stroke:#000000;stroke-width:0.5"
     id="polyline502"
     transform="translate(-170.67,-58.074765)" />
  <polyline
     points="360.32,527.04 361.05,528.18"
     style="fill:none;stroke:#000000;stroke-width:0.5"
     id="polyline504"
     transform="translate(-170.67,-58.074765)" />
  <polyline
     points="360.46,526.99 361.13,528.04"
     style="fill:none;stroke:#000000;stroke-width:0.5"
     id="polyline506"
     transform="translate(-170.67,-58.074765)" />
  <polyline
     points="361.05,528.18 362.19,528.18"
     style="fill:none;stroke:#000000;stroke-width:0.5"
     id="polyline508"
     transform="translate(-170.67,-58.074765)" />
  <polyline
     points="361.13,528.04 362.19,528.04"
     style="fill:none;stroke:#000000;stroke-width:0.5"
     id="polyline510"
     transform="translate(-170.67,-58.074765)" />
  <polyline
     points="362.19,528.18 362.19,528.04"
     style="fill:none;stroke:#000000;stroke-width:0.5"
     id="polyline512"
     transform="translate(-170.67,-58.074765)" />
  <polyline
     points="367.92,153.79 415.6,153.79"
     style="fill:none;stroke:#000000;stroke-width:0.5"
     id="polyline514"
     transform="translate(-170.67,-58.074765)" />
  <polyline
     points="432.69,153.79 458.25,153.79"
     style="fill:none;stroke:#000000;stroke-width:0.5"
     id="polyline516"
     transform="translate(-170.67,-58.074765)" />
  <polyline
     points="367.92,152.65 415.6,152.65"
     style="fill:none;stroke:#000000;stroke-width:0.5"
     id="polyline518"
     transform="translate(-170.67,-58.074765)" />
  <polyline
     points="432.69,152.65 458.25,152.65"
     style="fill:none;stroke:#000000;stroke-width:0.5"
     id="polyline520"
     transform="translate(-170.67,-58.074765)" />
  <polyline
     points="367.92,135.56 415.6,135.56"
     style="fill:none;stroke:#000000;stroke-width:0.5"
     id="polyline522"
     transform="translate(-170.67,-58.074765)" />
  <polyline
     points="432.69,135.56 458.25,135.56"
     style="fill:none;stroke:#000000;stroke-width:0.5"
     id="polyline524"
     transform="translate(-170.67,-58.074765)" />
  <polyline
     points="367.92,136.7 415.6,136.7"
     style="fill:none;stroke:#000000;stroke-width:0.5"
     id="polyline526"
     transform="translate(-170.67,-58.074765)" />
  <polyline
     points="432.69,136.7 458.25,136.7"
     style="fill:none;stroke:#000000;stroke-width:0.5"
     id="polyline528"
     transform="translate(-170.67,-58.074765)" />
  <polyline
     points="369.91,153.79 369.46,156.65 369.25,159.58 369.29,162.53 369.57,165.44 370.08,168.28 370.83,170.98 371.79,173.51 372.96,175.83 374.3,177.9 375.81,179.67 377.45,181.13 379.19,182.24 381.02,183 382.89,183.38 384.77,183.38 386.64,183 388.47,182.24 390.21,181.13 391.85,179.67 393.36,177.9 394.7,175.83 395.87,173.51 396.83,170.98 397.58,168.28 398.09,165.44 398.37,162.53 398.41,159.58 398.2,156.65 397.75,153.79"
     style="fill:none;stroke:#000000;stroke-width:0.5"
     id="polyline530"
     transform="translate(-170.67,-58.074765)" />
  <polyline
     points="372.3,146.66 371.46,148.54 370.74,150.54 370.16,152.65"
     style="fill:none;stroke:#000000;stroke-width:0.5"
     id="polyline532"
     transform="translate(-170.67,-58.074765)" />
  <polyline
     points="395.21,183.42 397.03,183.25 398.82,182.72 400.56,181.84 402.21,180.63 403.75,179.11 405.16,177.31 406.41,175.24 407.49,172.94 408.38,170.45 409.06,167.81 409.53,165.06 409.77,162.23 409.78,159.39 409.57,156.56 409.13,153.79"
     style="fill:none;stroke:#000000;stroke-width:0.5"
     id="polyline534"
     transform="translate(-170.67,-58.074765)" />
  <polyline
     points="383.83,183.42 395.21,183.42"
     style="fill:none;stroke:#000000;stroke-width:0.5"
     id="polyline536"
     transform="translate(-170.67,-58.074765)" />
  <polyline
     points="367.92,135.56 367.92,136.7"
     style="fill:none;stroke:#000000;stroke-width:0.5"
     id="polyline538"
     transform="translate(-170.67,-58.074765)" />
  <polyline
     points="367.92,152.65 367.92,153.79"
     style="fill:none;stroke:#000000;stroke-width:0.5"
     id="polyline540"
     transform="translate(-170.67,-58.074765)" />
  <polyline
     points="372.3,136.7 372.3,152.65"
     style="fill:none;stroke:#000000;stroke-width:0.5"
     id="polyline542"
     transform="translate(-170.67,-58.074765)" />
  <polyline
     points="458.25,147.43 458.25,154.9"
     style="fill:none;stroke:#000000;stroke-width:0.5"
     id="polyline544"
     transform="translate(-170.67,-58.074765)" />
  <polyline
     points="458.25,141.92 463.39,141.92"
     style="fill:none;stroke:#000000;stroke-width:0.5"
     id="polyline546"
     transform="translate(-170.67,-58.074765)" />
  <polyline
     points="463.39,141.92 453.1,147.43"
     style="fill:none;stroke:#000000;stroke-width:0.5"
     id="polyline548"
     transform="translate(-170.67,-58.074765)" />
  <polyline
     points="458.25,133.18 458.25,141.92"
     style="fill:none;stroke:#000000;stroke-width:0.5"
     id="polyline550"
     transform="translate(-170.67,-58.074765)" />
  <polyline
     points="453.1,147.43 458.25,147.43"
     style="fill:none;stroke:#000000;stroke-width:0.5"
     id="polyline552"
     transform="translate(-170.67,-58.074765)" />
  <polyline
     points="501.36,429.03 543.51,429.03"
     style="fill:none;stroke:#000000;stroke-width:0.5"
     id="polyline554"
     transform="translate(-170.67,-58.074765)" />
  <polyline
     points="561.89,442.89 561.89,435.41 565.1,435.41 566.16,435.77 566.52,436.12 566.88,436.84 566.88,437.55 566.52,438.26 566.16,438.62 565.1,438.97"
     style="fill:none;stroke:#000000;stroke-width:0.5"
     id="polyline556"
     transform="translate(-170.67,-58.074765)" />
  <polyline
     points="561.89,438.97 565.1,438.97 566.16,439.33 566.52,439.68 566.88,440.4 566.88,441.47 566.52,442.18 566.16,442.53 565.1,442.89 561.89,442.89"
     style="fill:none;stroke:#000000;stroke-width:0.5"
     id="polyline558"
     transform="translate(-170.67,-58.074765)" />
  <polyline
     points="571.51,435.41 570.79,435.77 570.08,436.48 569.73,437.19 569.37,438.26 569.37,440.04 569.73,441.11 570.08,441.82 570.79,442.53 571.51,442.89 572.93,442.89 573.64,442.53 574.36,441.82 574.71,441.11 575.07,440.04 575.07,438.26 574.71,437.19 574.36,436.48 573.64,435.77 572.93,435.41 571.51,435.41"
     style="fill:none;stroke:#000000;stroke-width:0.5"
     id="polyline560"
     transform="translate(-170.67,-58.074765)" />
  <polyline
     points="579.7,435.41 579.7,442.89"
     style="fill:none;stroke:#000000;stroke-width:0.5"
     id="polyline562"
     transform="translate(-170.67,-58.074765)" />
  <polyline
     points="577.21,435.41 582.19,435.41"
     style="fill:none;stroke:#000000;stroke-width:0.5"
     id="polyline564"
     transform="translate(-170.67,-58.074765)" />
  <polyline
     points="586.11,435.41 586.11,442.89"
     style="fill:none;stroke:#000000;stroke-width:0.5"
     id="polyline566"
     transform="translate(-170.67,-58.074765)" />
  <polyline
     points="583.62,435.41 588.6,435.41"
     style="fill:none;stroke:#000000;stroke-width:0.5"
     id="polyline568"
     transform="translate(-170.67,-58.074765)" />
  <polyline
     points="592.16,435.41 591.45,435.77 590.74,436.48 590.38,437.19 590.03,438.26 590.03,440.04 590.38,441.11 590.74,441.82 591.45,442.53 592.16,442.89 593.59,442.89 594.3,442.53 595.01,441.82 595.37,441.11 595.73,440.04 595.73,438.26 595.37,437.19 595.01,436.48 594.3,435.77 593.59,435.41 592.16,435.41"
     style="fill:none;stroke:#000000;stroke-width:0.5"
     id="polyline570"
     transform="translate(-170.67,-58.074765)" />
  <polyline
     points="597.86,442.89 597.86,435.41 600.71,442.89 603.56,435.41 603.56,442.89"
     style="fill:none;stroke:#000000;stroke-width:0.5"
     id="polyline572"
     transform="translate(-170.67,-58.074765)" />
  <polyline
     points="563.14,449.66 562.78,448.94 562.07,448.23 561.36,447.88 559.93,447.88 559.22,448.23 558.51,448.94 558.15,449.66 557.8,450.73 557.8,452.51 558.15,453.57 558.51,454.29 559.22,455 559.93,455.36 561.36,455.36 562.07,455 562.78,454.29 563.14,453.57"
     style="fill:none;stroke:#000000;stroke-width:0.5"
     id="polyline574"
     transform="translate(-170.67,-58.074765)" />
  <polyline
     points="565.27,455.36 565.27,447.88"
     style="fill:none;stroke:#000000;stroke-width:0.5"
     id="polyline576"
     transform="translate(-170.67,-58.074765)" />
  <polyline
     points="570.26,447.88 570.26,455.36"
     style="fill:none;stroke:#000000;stroke-width:0.5"
     id="polyline578"
     transform="translate(-170.67,-58.074765)" />
  <polyline
     points="565.27,451.44 570.26,451.44"
     style="fill:none;stroke:#000000;stroke-width:0.5"
     id="polyline580"
     transform="translate(-170.67,-58.074765)" />
  <polyline
     points="573.11,455.36 575.96,447.88 578.81,455.36"
     style="fill:none;stroke:#000000;stroke-width:0.5"
     id="polyline582"
     transform="translate(-170.67,-58.074765)" />
  <polyline
     points="574.18,452.86 577.74,452.86"
     style="fill:none;stroke:#000000;stroke-width:0.5"
     id="polyline584"
     transform="translate(-170.67,-58.074765)" />
  <polyline
     points="580.94,455.36 580.94,447.88 585.93,455.36 585.93,447.88"
     style="fill:none;stroke:#000000;stroke-width:0.5"
     id="polyline586"
     transform="translate(-170.67,-58.074765)" />
  <polyline
     points="588.78,455.36 588.78,447.88 593.77,455.36 593.77,447.88"
     style="fill:none;stroke:#000000;stroke-width:0.5"
     id="polyline588"
     transform="translate(-170.67,-58.074765)" />
  <polyline
     points="596.62,455.36 596.62,447.88 601.25,447.88"
     style="fill:none;stroke:#000000;stroke-width:0.5"
     id="polyline590"
     transform="translate(-170.67,-58.074765)" />
  <polyline
     points="596.62,451.44 599.46,451.44"
     style="fill:none;stroke:#000000;stroke-width:0.5"
     id="polyline592"
     transform="translate(-170.67,-58.074765)" />
  <polyline
     points="596.62,455.36 601.25,455.36"
     style="fill:none;stroke:#000000;stroke-width:0.5"
     id="polyline594"
     transform="translate(-170.67,-58.074765)" />
  <polyline
     points="603.38,447.88 603.38,455.36 607.66,455.36"
     style="fill:none;stroke:#000000;stroke-width:0.5"
     id="polyline596"
     transform="translate(-170.67,-58.074765)" />
  <polyline
     points="441.74,449.54 543.51,449.54"
     style="fill:none;stroke:#000000;stroke-width:0.5"
     id="polyline598"
     transform="translate(-170.67,-58.074765)" />
  <polyline
     points="441.74,447.26 543.51,447.26"
     style="fill:none;stroke:#000000;stroke-width:0.5"
     id="polyline600"
     transform="translate(-170.67,-58.074765)" />
  <polyline
     points="530.69,458.09 530.69,468.23"
     style="fill:none;stroke:#000000;stroke-width:0.5"
     id="polyline602"
     transform="translate(-170.67,-58.074765)" />
  <path
     d="m 358.59,400.01524 1.43,-8.55 v 0 l 1.42,8.55 z"
     fill-rule="evenodd"
     fill="#000000"
     id="path604" />
  <polyline
     points="488.65,459.33 487.94,458.62 486.87,458.26 485.44,458.26 484.37,458.62 483.66,459.33 483.66,460.04 484.02,460.75 484.37,461.11 485.09,461.47 487.22,462.18 487.94,462.53 488.29,462.89 488.65,463.6 488.65,464.67 487.94,465.38 486.87,465.74 485.44,465.74 484.37,465.38 483.66,464.67"
     style="fill:none;stroke:#000000;stroke-width:0.5"
     id="polyline606"
     transform="translate(-170.67,-58.074765)" />
  <polyline
     points="493.28,458.26 493.28,465.74"
     style="fill:none;stroke:#000000;stroke-width:0.5"
     id="polyline608"
     transform="translate(-170.67,-58.074765)" />
  <polyline
     points="490.79,458.26 495.77,458.26"
     style="fill:none;stroke:#000000;stroke-width:0.5"
     id="polyline610"
     transform="translate(-170.67,-58.074765)" />
  <polyline
     points="497.2,465.74 497.2,458.26 500.4,458.26 501.47,458.62 501.83,458.97 502.18,459.68 502.18,460.4 501.83,461.11 501.47,461.47 500.4,461.82 497.2,461.82"
     style="fill:none;stroke:#000000;stroke-width:0.5"
     id="polyline612"
     transform="translate(-170.67,-58.074765)" />
  <polyline
     points="499.69,461.82 502.18,465.74"
     style="fill:none;stroke:#000000;stroke-width:0.5"
     id="polyline614"
     transform="translate(-170.67,-58.074765)" />
  <polyline
     points="504.68,465.74 504.68,458.26"
     style="fill:none;stroke:#000000;stroke-width:0.5"
     id="polyline616"
     transform="translate(-170.67,-58.074765)" />
  <polyline
     points="507.52,465.74 507.52,458.26"
     style="fill:none;stroke:#000000;stroke-width:0.5"
     id="polyline618"
     transform="translate(-170.67,-58.074765)" />
  <polyline
     points="512.51,458.26 507.52,463.25"
     style="fill:none;stroke:#000000;stroke-width:0.5"
     id="polyline620"
     transform="translate(-170.67,-58.074765)" />
  <polyline
     points="509.31,461.47 512.51,465.74"
     style="fill:none;stroke:#000000;stroke-width:0.5"
     id="polyline622"
     transform="translate(-170.67,-58.074765)" />
  <polyline
     points="515,465.74 515,458.26 519.63,458.26"
     style="fill:none;stroke:#000000;stroke-width:0.5"
     id="polyline624"
     transform="translate(-170.67,-58.074765)" />
  <polyline
     points="515,461.82 517.85,461.82"
     style="fill:none;stroke:#000000;stroke-width:0.5"
     id="polyline626"
     transform="translate(-170.67,-58.074765)" />
  <polyline
     points="515,465.74 519.63,465.74"
     style="fill:none;stroke:#000000;stroke-width:0.5"
     id="polyline628"
     transform="translate(-170.67,-58.074765)" />
  <polyline
     points="485.44,478.2 485.44,470.73 488.65,470.73 489.72,471.08 490.07,471.44 490.43,472.15 490.43,473.22 490.07,473.93 489.72,474.29 488.65,474.64 485.44,474.64"
     style="fill:none;stroke:#000000;stroke-width:0.5"
     id="polyline630"
     transform="translate(-170.67,-58.074765)" />
  <polyline
     points="492.92,470.73 492.92,478.2 497.2,478.2"
     style="fill:none;stroke:#000000;stroke-width:0.5"
     id="polyline632"
     transform="translate(-170.67,-58.074765)" />
  <polyline
     points="498.98,478.2 501.83,470.73 504.68,478.2"
     style="fill:none;stroke:#000000;stroke-width:0.5"
     id="polyline634"
     transform="translate(-170.67,-58.074765)" />
  <polyline
     points="500.05,475.71 503.61,475.71"
     style="fill:none;stroke:#000000;stroke-width:0.5"
     id="polyline636"
     transform="translate(-170.67,-58.074765)" />
  <polyline
     points="509.31,470.73 509.31,478.2"
     style="fill:none;stroke:#000000;stroke-width:0.5"
     id="polyline638"
     transform="translate(-170.67,-58.074765)" />
  <polyline
     points="506.81,470.73 511.8,470.73"
     style="fill:none;stroke:#000000;stroke-width:0.5"
     id="polyline640"
     transform="translate(-170.67,-58.074765)" />
  <polyline
     points="513.22,478.2 513.22,470.73 517.85,470.73"
     style="fill:none;stroke:#000000;stroke-width:0.5"
     id="polyline642"
     transform="translate(-170.67,-58.074765)" />
  <polyline
     points="513.22,474.29 516.07,474.29"
     style="fill:none;stroke:#000000;stroke-width:0.5"
     id="polyline644"
     transform="translate(-170.67,-58.074765)" />
  <polyline
     points="513.22,478.2 517.85,478.2"
     style="fill:none;stroke:#000000;stroke-width:0.5"
     id="polyline646"
     transform="translate(-170.67,-58.074765)" />
  <polyline
     points="359.38,153.79 326.64,153.79"
     style="fill:none;stroke:#000000;stroke-width:0.5"
     id="polyline648"
     transform="translate(-170.67,-58.074765)" />
  <polyline
     points="330.92,171.49 339.46,171.49"
     style="fill:none;stroke:#000000;stroke-width:0.5"
     id="polyline650"
     transform="translate(-170.67,-58.074765)" />
  <polyline
     points="339.46,171.49 339.46,162.34"
     style="fill:none;stroke:#000000;stroke-width:0.5"
     id="polyline652"
     transform="translate(-170.67,-58.074765)" />
  <polyline
     points="288.59,162.58 287.88,161.87 286.81,161.51 285.38,161.51 284.32,161.87 283.6,162.58 283.6,163.3 283.96,164.01 284.32,164.36 285.03,164.72 287.16,165.43 287.88,165.79 288.23,166.14 288.59,166.86 288.59,167.93 287.88,168.64 286.81,168.99 285.38,168.99 284.32,168.64 283.6,167.93"
     style="fill:none;stroke:#000000;stroke-width:0.5"
     id="polyline654"
     transform="translate(-170.67,-58.074765)" />
  <polyline
     points="290.73,168.99 290.73,161.51"
     style="fill:none;stroke:#000000;stroke-width:0.5"
     id="polyline656"
     transform="translate(-170.67,-58.074765)" />
  <polyline
     points="295.71,161.51 295.71,168.99"
     style="fill:none;stroke:#000000;stroke-width:0.5"
     id="polyline658"
     transform="translate(-170.67,-58.074765)" />
  <polyline
     points="290.73,165.08 295.71,165.08"
     style="fill:none;stroke:#000000;stroke-width:0.5"
     id="polyline660"
     transform="translate(-170.67,-58.074765)" />
  <polyline
     points="298.56,168.99 298.56,161.51 303.19,161.51"
     style="fill:none;stroke:#000000;stroke-width:0.5"
     id="polyline662"
     transform="translate(-170.67,-58.074765)" />
  <polyline
     points="298.56,165.08 301.41,165.08"
     style="fill:none;stroke:#000000;stroke-width:0.5"
     id="polyline664"
     transform="translate(-170.67,-58.074765)" />
  <polyline
     points="298.56,168.99 303.19,168.99"
     style="fill:none;stroke:#000000;stroke-width:0.5"
     id="polyline666"
     transform="translate(-170.67,-58.074765)" />
  <polyline
     points="305.33,168.99 308.18,161.51 311.03,168.99"
     style="fill:none;stroke:#000000;stroke-width:0.5"
     id="polyline668"
     transform="translate(-170.67,-58.074765)" />
  <polyline
     points="306.4,166.5 309.96,166.5"
     style="fill:none;stroke:#000000;stroke-width:0.5"
     id="polyline670"
     transform="translate(-170.67,-58.074765)" />
  <polyline
     points="313.16,161.51 316.01,168.99 318.86,161.51"
     style="fill:none;stroke:#000000;stroke-width:0.5"
     id="polyline672"
     transform="translate(-170.67,-58.074765)" />
  <polyline
     points="320.29,168.99 320.29,161.51 324.92,161.51"
     style="fill:none;stroke:#000000;stroke-width:0.5"
     id="polyline674"
     transform="translate(-170.67,-58.074765)" />
  <polyline
     points="320.29,165.08 323.14,165.08"
     style="fill:none;stroke:#000000;stroke-width:0.5"
     id="polyline676"
     transform="translate(-170.67,-58.074765)" />
  <polyline
     points="320.29,168.99 324.92,168.99"
     style="fill:none;stroke:#000000;stroke-width:0.5"
     id="polyline678"
     transform="translate(-170.67,-58.074765)" />
  <polyline
     points="284.67,175.76 284.32,175.05 283.6,174.34 282.89,173.98 281.47,173.98 280.75,174.34 280.04,175.05 279.69,175.76 279.33,176.83 279.33,178.61 279.69,179.68 280.04,180.39 280.75,181.1 281.47,181.46 282.89,181.46 283.6,181.1 284.32,180.39 284.67,179.68"
     style="fill:none;stroke:#000000;stroke-width:0.5"
     id="polyline680"
     transform="translate(-170.67,-58.074765)" />
  <polyline
     points="286.81,181.46 286.81,173.98"
     style="fill:none;stroke:#000000;stroke-width:0.5"
     id="polyline682"
     transform="translate(-170.67,-58.074765)" />
  <polyline
     points="291.79,173.98 291.79,181.46"
     style="fill:none;stroke:#000000;stroke-width:0.5"
     id="polyline684"
     transform="translate(-170.67,-58.074765)" />
  <polyline
     points="286.81,177.54 291.79,177.54"
     style="fill:none;stroke:#000000;stroke-width:0.5"
     id="polyline686"
     transform="translate(-170.67,-58.074765)" />
  <polyline
     points="294.64,181.46 297.49,173.98 300.34,181.46"
     style="fill:none;stroke:#000000;stroke-width:0.5"
     id="polyline688"
     transform="translate(-170.67,-58.074765)" />
  <polyline
     points="295.71,178.97 299.27,178.97"
     style="fill:none;stroke:#000000;stroke-width:0.5"
     id="polyline690"
     transform="translate(-170.67,-58.074765)" />
  <polyline
     points="302.48,181.46 302.48,173.98 307.47,181.46 307.47,173.98"
     style="fill:none;stroke:#000000;stroke-width:0.5"
     id="polyline692"
     transform="translate(-170.67,-58.074765)" />
  <polyline
     points="310.31,181.46 310.31,173.98 315.3,181.46 315.3,173.98"
     style="fill:none;stroke:#000000;stroke-width:0.5"
     id="polyline694"
     transform="translate(-170.67,-58.074765)" />
  <polyline
     points="318.15,181.46 318.15,173.98 322.78,173.98"
     style="fill:none;stroke:#000000;stroke-width:0.5"
     id="polyline696"
     transform="translate(-170.67,-58.074765)" />
  <polyline
     points="318.15,177.54 321,177.54"
     style="fill:none;stroke:#000000;stroke-width:0.5"
     id="polyline698"
     transform="translate(-170.67,-58.074765)" />
  <polyline
     points="318.15,181.46 322.78,181.46"
     style="fill:none;stroke:#000000;stroke-width:0.5"
     id="polyline700"
     transform="translate(-170.67,-58.074765)" />
  <polyline
     points="324.92,173.98 324.92,181.46 329.19,181.46"
     style="fill:none;stroke:#000000;stroke-width:0.5"
     id="polyline702"
     transform="translate(-170.67,-58.074765)" />
  <path
     d="m 167.37,104.26524 1.42,-8.550005 v 0 l 1.43,8.550005 z"
     fill-rule="evenodd"
     fill="#000000"
     id="path704" />
  <polyline
     points="530.69,447.26 530.69,313.65"
     style="fill:none;stroke:#000000;stroke-width:0.5"
     id="polyline706"
     transform="translate(-170.67,-58.074765)" />
  <polyline
     points="530.69,438.14 551.8,445.38"
     style="fill:none;stroke:#000000;stroke-width:0.5"
     id="polyline708"
     transform="translate(-170.67,-58.074765)" />
  <polyline
     points="551.8,445.38 556.07,445.38"
     style="fill:none;stroke:#000000;stroke-width:0.5"
     id="polyline710"
     transform="translate(-170.67,-58.074765)" />
  <polyline
     points="530.69,468.23 522.96,468.23"
     style="fill:none;stroke:#000000;stroke-width:0.5"
     id="polyline712"
     transform="translate(-170.67,-58.074765)" />
  <polyline
     points="369.44,103.65 470.69,103.65"
     style="fill:none;stroke:#000000;stroke-width:0.5"
     id="polyline714"
     transform="translate(-170.67,-58.074765)" />
  <polyline
     points="369.44,117.32 369.44,103.65"
     style="fill:none;stroke:#000000;stroke-width:0.5"
     id="polyline716"
     transform="translate(-170.67,-58.074765)" />
  <polyline
     points="470.69,113.24 470.69,120.71"
     style="fill:none;stroke:#000000;stroke-width:0.5"
     id="polyline718"
     transform="translate(-170.67,-58.074765)" />
  <polyline
     points="470.69,107.73 475.83,107.73"
     style="fill:none;stroke:#000000;stroke-width:0.5"
     id="polyline720"
     transform="translate(-170.67,-58.074765)" />
  <polyline
     points="475.83,107.73 465.55,113.24"
     style="fill:none;stroke:#000000;stroke-width:0.5"
     id="polyline722"
     transform="translate(-170.67,-58.074765)" />
  <polyline
     points="470.69,98.99 470.69,107.73"
     style="fill:none;stroke:#000000;stroke-width:0.5"
     id="polyline724"
     transform="translate(-170.67,-58.074765)" />
  <polyline
     points="465.55,113.24 470.69,113.24"
     style="fill:none;stroke:#000000;stroke-width:0.5"
     id="polyline726"
     transform="translate(-170.67,-58.074765)" />
  <polyline
     points="438.03,117.32 470.69,117.32"
     style="fill:none;stroke:#000000;stroke-width:0.5"
     id="polyline728"
     transform="translate(-170.67,-58.074765)" />
  <polyline
     points="410.26,117.32 369.44,117.32"
     style="fill:none;stroke:#000000;stroke-width:0.5"
     id="polyline730"
     transform="translate(-170.67,-58.074765)" />
  <polyline
     points="360.89,103.65 250.57,103.65"
     style="fill:none;stroke:#000000;stroke-width:0.5"
     id="polyline732"
     transform="translate(-170.67,-58.074765)" />
  <polyline
     points="263.4,95.1 263.4,83.87"
     style="fill:none;stroke:#000000;stroke-width:0.5"
     id="polyline734"
     transform="translate(-170.67,-58.074765)" />
  <path
     d="m 91.3,37.025235 1.43,8.55 v 0 l 1.42,-8.55 z"
     fill-rule="evenodd"
     fill="#000000"
     id="path736" />
  <polyline
     points="279.77,75.68 279.42,74.97 278.7,74.25 277.99,73.9 276.57,73.9 275.85,74.25 275.14,74.97 274.79,75.68 274.43,76.75 274.43,78.53 274.79,79.6 275.14,80.31 275.85,81.02 276.57,81.38 277.99,81.38 278.7,81.02 279.42,80.31 279.77,79.6"
     style="fill:none;stroke:#000000;stroke-width:0.5"
     id="polyline738"
     transform="translate(-170.67,-58.074765)" />
  <polyline
     points="284.05,73.9 283.33,74.25 282.62,74.97 282.26,75.68 281.91,76.75 281.91,78.53 282.26,79.6 282.62,80.31 283.33,81.02 284.05,81.38 285.47,81.38 286.18,81.02 286.89,80.31 287.25,79.6 287.61,78.53 287.61,76.75 287.25,75.68 286.89,74.97 286.18,74.25 285.47,73.9 284.05,73.9"
     style="fill:none;stroke:#000000;stroke-width:0.5"
     id="polyline740"
     transform="translate(-170.67,-58.074765)" />
  <polyline
     points="289.74,81.38 289.74,73.9 292.95,73.9 294.02,74.25 294.37,74.61 294.73,75.32 294.73,76.04 294.37,76.75 294.02,77.1 292.95,77.46 289.74,77.46"
     style="fill:none;stroke:#000000;stroke-width:0.5"
     id="polyline742"
     transform="translate(-170.67,-58.074765)" />
  <polyline
     points="292.24,77.46 294.73,81.38"
     style="fill:none;stroke:#000000;stroke-width:0.5"
     id="polyline744"
     transform="translate(-170.67,-58.074765)" />
  <polyline
     points="297.22,81.38 297.22,73.9 302.21,81.38 302.21,73.9"
     style="fill:none;stroke:#000000;stroke-width:0.5"
     id="polyline746"
     transform="translate(-170.67,-58.074765)" />
  <polyline
     points="305.06,81.38 305.06,73.9 309.69,73.9"
     style="fill:none;stroke:#000000;stroke-width:0.5"
     id="polyline748"
     transform="translate(-170.67,-58.074765)" />
  <polyline
     points="305.06,77.46 307.91,77.46"
     style="fill:none;stroke:#000000;stroke-width:0.5"
     id="polyline750"
     transform="translate(-170.67,-58.074765)" />
  <polyline
     points="305.06,81.38 309.69,81.38"
     style="fill:none;stroke:#000000;stroke-width:0.5"
     id="polyline752"
     transform="translate(-170.67,-58.074765)" />
  <polyline
     points="311.83,81.38 311.83,73.9 315.03,73.9 316.1,74.25 316.46,74.61 316.81,75.32 316.81,76.04 316.46,76.75 316.1,77.1 315.03,77.46 311.83,77.46"
     style="fill:none;stroke:#000000;stroke-width:0.5"
     id="polyline754"
     transform="translate(-170.67,-58.074765)" />
  <polyline
     points="314.32,77.46 316.81,81.38"
     style="fill:none;stroke:#000000;stroke-width:0.5"
     id="polyline756"
     transform="translate(-170.67,-58.074765)" />
  <polyline
     points="319.3,81.38 319.3,73.9 322.51,73.9 323.58,74.25 323.93,74.61 324.29,75.32 324.29,76.39 323.93,77.1 323.58,77.46 322.51,77.82 319.3,77.82"
     style="fill:none;stroke:#000000;stroke-width:0.5"
     id="polyline758"
     transform="translate(-170.67,-58.074765)" />
  <polyline
     points="328.92,73.9 328.21,74.25 327.5,74.97 327.14,75.68 326.78,76.75 326.78,78.53 327.14,79.6 327.5,80.31 328.21,81.02 328.92,81.38 330.35,81.38 331.06,81.02 331.77,80.31 332.13,79.6 332.48,78.53 332.48,76.75 332.13,75.68 331.77,74.97 331.06,74.25 330.35,73.9 328.92,73.9"
     style="fill:none;stroke:#000000;stroke-width:0.5"
     id="polyline760"
     transform="translate(-170.67,-58.074765)" />
  <polyline
     points="339.61,74.97 338.89,74.25 337.82,73.9 336.4,73.9 335.33,74.25 334.62,74.97 334.62,75.68 334.98,76.39 335.33,76.75 336.04,77.1 338.18,77.82 338.89,78.17 339.25,78.53 339.61,79.24 339.61,80.31 338.89,81.02 337.82,81.38 336.4,81.38 335.33,81.02 334.62,80.31"
     style="fill:none;stroke:#000000;stroke-width:0.5"
     id="polyline762"
     transform="translate(-170.67,-58.074765)" />
  <polyline
     points="344.24,73.9 344.24,81.38"
     style="fill:none;stroke:#000000;stroke-width:0.5"
     id="polyline764"
     transform="translate(-170.67,-58.074765)" />
  <polyline
     points="341.74,73.9 346.73,73.9"
     style="fill:none;stroke:#000000;stroke-width:0.5"
     id="polyline766"
     transform="translate(-170.67,-58.074765)" />
  <polyline
     points="293.13,93.84 293.13,86.36 296.33,86.36 297.4,86.72 297.76,87.08 298.11,87.79 298.11,88.5 297.76,89.21 297.4,89.57 296.33,89.93"
     style="fill:none;stroke:#000000;stroke-width:0.5"
     id="polyline768"
     transform="translate(-170.67,-58.074765)" />
  <polyline
     points="293.13,89.93 296.33,89.93 297.4,90.28 297.76,90.64 298.11,91.35 298.11,92.42 297.76,93.13 297.4,93.49 296.33,93.84 293.13,93.84"
     style="fill:none;stroke:#000000;stroke-width:0.5"
     id="polyline770"
     transform="translate(-170.67,-58.074765)" />
  <polyline
     points="300.61,93.84 300.61,86.36 303.81,86.36 304.88,86.72 305.24,87.08 305.59,87.79 305.59,88.5 305.24,89.21 304.88,89.57 303.81,89.93 300.61,89.93"
     style="fill:none;stroke:#000000;stroke-width:0.5"
     id="polyline772"
     transform="translate(-170.67,-58.074765)" />
  <polyline
     points="303.1,89.93 305.59,93.84"
     style="fill:none;stroke:#000000;stroke-width:0.5"
     id="polyline774"
     transform="translate(-170.67,-58.074765)" />
  <polyline
     points="308.09,93.84 310.93,86.36 313.78,93.84"
     style="fill:none;stroke:#000000;stroke-width:0.5"
     id="polyline776"
     transform="translate(-170.67,-58.074765)" />
  <polyline
     points="309.15,91.35 312.72,91.35"
     style="fill:none;stroke:#000000;stroke-width:0.5"
     id="polyline778"
     transform="translate(-170.67,-58.074765)" />
  <polyline
     points="321.26,88.14 320.91,87.43 320.19,86.72 319.48,86.36 318.06,86.36 317.35,86.72 316.63,87.43 316.28,88.14 315.92,89.21 315.92,90.99 316.28,92.06 316.63,92.77 317.35,93.49 318.06,93.84 319.48,93.84 320.19,93.49 320.91,92.77 321.26,92.06"
     style="fill:none;stroke:#000000;stroke-width:0.5"
     id="polyline780"
     transform="translate(-170.67,-58.074765)" />
  <polyline
     points="323.4,93.84 323.4,86.36 328.03,86.36"
     style="fill:none;stroke:#000000;stroke-width:0.5"
     id="polyline782"
     transform="translate(-170.67,-58.074765)" />
  <polyline
     points="323.4,89.93 326.25,89.93"
     style="fill:none;stroke:#000000;stroke-width:0.5"
     id="polyline784"
     transform="translate(-170.67,-58.074765)" />
  <polyline
     points="323.4,93.84 328.03,93.84"
     style="fill:none;stroke:#000000;stroke-width:0.5"
     id="polyline786"
     transform="translate(-170.67,-58.074765)" />
  <polyline
     points="263.4,83.87 270.62,83.87"
     style="fill:none;stroke:#000000;stroke-width:0.5"
     id="polyline788"
     transform="translate(-170.67,-58.074765)" />
</svg>
